<?xml version="1.0" encoding="UTF-8" standalone="no"?>
<!-- Created with Inkscape (http://www.inkscape.org/) -->

<svg
   width="148mm"
   height="105mm"
   viewBox="0 0 148 105"
   version="1.1"
   id="svg20642"
   inkscape:version="1.1 (c68e22c387, 2021-05-23)"
   sodipodi:docname="cinematica-tiro-oblicuo-2.svg"
   xmlns:inkscape="http://www.inkscape.org/namespaces/inkscape"
   xmlns:sodipodi="http://sodipodi.sourceforge.net/DTD/sodipodi-0.dtd"
   xmlns="http://www.w3.org/2000/svg"
   xmlns:svg="http://www.w3.org/2000/svg">
  <sodipodi:namedview
     id="namedview20644"
     pagecolor="#ffffff"
     bordercolor="#666666"
     borderopacity="1.0"
     inkscape:pageshadow="2"
     inkscape:pageopacity="0.0"
     inkscape:pagecheckerboard="0"
     inkscape:document-units="mm"
     showgrid="false"
     inkscape:zoom="0.67081229"
     inkscape:cx="566.4774"
     inkscape:cy="507.59356"
     inkscape:window-width="1920"
     inkscape:window-height="1001"
     inkscape:window-x="-9"
     inkscape:window-y="-9"
     inkscape:window-maximized="1"
     inkscape:current-layer="layer1" />
  <defs
     id="defs20639">
    <clipPath
       id="clipPath1334">
      <rect
         style="opacity:1;fill:none;fill-opacity:0.7;stroke:#000000;stroke-width:0.5;stroke-linecap:round;stroke-linejoin:round;stroke-miterlimit:4;stroke-dasharray:none"
         width="78.126877"
         height="54.230103"
         x="825.79724"
         y="-29.97233"
         id="rect13211" />
    </clipPath>
    <clipPath
       id="clipPath1334-2-4">
      <rect
         style="opacity:1;fill:none;fill-opacity:0.7;stroke:#000000;stroke-width:0.5;stroke-linecap:round;stroke-linejoin:round;stroke-miterlimit:4;stroke-dasharray:none"
         width="78.126877"
         height="54.230103"
         x="825.79724"
         y="-29.97233"
         id="rect13211-5-8" />
    </clipPath>
    <clipPath
       id="clipPath1334-2-8">
      <rect
         style="opacity:1;fill:none;fill-opacity:0.7;stroke:#000000;stroke-width:0.5;stroke-linecap:round;stroke-linejoin:round;stroke-miterlimit:4;stroke-dasharray:none"
         width="78.126877"
         height="54.230103"
         x="825.79724"
         y="-29.97233"
         id="rect13211-5-1" />
    </clipPath>
    <clipPath
       id="clipPath20528">
      <rect
         style="opacity:1;fill:none;fill-opacity:0.7;stroke:#000000;stroke-width:0.5;stroke-linecap:round;stroke-linejoin:round;stroke-miterlimit:4;stroke-dasharray:none"
         width="78.126877"
         height="54.230103"
         x="825.79724"
         y="-29.97233"
         id="rect20526" />
    </clipPath>
    <clipPath
       id="clipPath20532">
      <rect
         style="opacity:1;fill:none;fill-opacity:0.7;stroke:#000000;stroke-width:0.5;stroke-linecap:round;stroke-linejoin:round;stroke-miterlimit:4;stroke-dasharray:none"
         width="78.126877"
         height="54.230103"
         x="825.79724"
         y="-29.97233"
         id="rect20530" />
    </clipPath>
  </defs>
  <g
     inkscape:label="Layer 1"
     inkscape:groupmode="layer"
     id="layer1">
    <path
       inkscape:connector-curvature="0"
       id="path849-4-5"
       d="m 37.511588,25.460443 v 66.07109"
       style="fill:none;stroke:#000000;stroke-width:0.300001;stroke-linecap:round;stroke-linejoin:round;stroke-miterlimit:4;stroke-dasharray:none;stroke-opacity:1"
       inkscape:export-filename="C:\Users\Admin\Desktop\Libro F1\PNG\oblicuoAlcance.png"
       inkscape:export-xdpi="300"
       inkscape:export-ydpi="300" />
    <path
       sodipodi:nodetypes="cccc"
       inkscape:connector-curvature="0"
       id="path872-3-3-0"
       d="m 37.511588,25.207943 h -1.3185 c 0,0 1.0788,-0.6713 1.3185,-5.130302 0.2398,4.459002 1.3186,5.130302 1.3186,5.130302 z"
       style="fill:#000000;fill-opacity:1;stroke:#000000;stroke-width:0.264999;stroke-linecap:round;stroke-linejoin:round;stroke-miterlimit:4;stroke-dasharray:none;stroke-opacity:1"
       inkscape:export-filename="C:\Users\Admin\Desktop\Libro F1\PNG\oblicuoAlcance.png"
       inkscape:export-xdpi="300"
       inkscape:export-ydpi="300" />
    <path
       inkscape:connector-curvature="0"
       id="path849-4-3-3"
       d="M 117.83799,80.948243 H 26.928288"
       style="fill:none;stroke:#000000;stroke-width:0.3;stroke-linecap:round;stroke-linejoin:round;stroke-miterlimit:4;stroke-dasharray:none;stroke-opacity:1"
       inkscape:export-filename="C:\Users\Admin\Desktop\Libro F1\PNG\oblicuoAlcance.png"
       inkscape:export-xdpi="300"
       inkscape:export-ydpi="300" />
    <path
       sodipodi:nodetypes="cccc"
       inkscape:connector-curvature="0"
       id="path872-3-4-6"
       d="m 117.83799,80.948243 v -1.3186 c 0,0 0.6713,1.0788 5.1303,1.3186 -4.459,0.2397 -5.1303,1.3185 -5.1303,1.3185 z"
       style="fill:#000000;fill-opacity:1;stroke:#000000;stroke-width:0.264999;stroke-linecap:round;stroke-linejoin:round;stroke-miterlimit:4;stroke-dasharray:none;stroke-opacity:1"
       inkscape:export-filename="C:\Users\Admin\Desktop\Libro F1\PNG\oblicuoAlcance.png"
       inkscape:export-xdpi="300"
       inkscape:export-ydpi="300" />
    <path
       style="fill:none;fill-opacity:0.7;stroke:#000000;stroke-width:0.426549;stroke-linecap:round;stroke-linejoin:round;stroke-miterlimit:4;stroke-dasharray:none;stroke-dashoffset:0"
       d="m 825.797,24.2578 c 0.532,-1.3415 1.063,-2.6556 1.595,-3.9424 0.531,-1.2868 1.063,-2.5461 1.594,-3.7781 0.532,-1.232 1.063,-2.4366 1.595,-3.6138 0.531,-1.1773 1.062,-2.3271 1.594,-3.4496 0.531,-1.1225 1.063,-2.21755 1.594,-3.2853 0.532,-1.06775 1.063,-2.10804 1.595,-3.12104 0.531,-1.01299 1.063,-1.99853 1.594,-2.956772 0.532,-0.958241 1.063,-1.889018 1.595,-2.792508 0.531,-0.90349 1.063,-1.77951 1.594,-2.62824 0.532,-0.84873 1.063,-1.67001 1.595,-2.46398 0.531,-0.79398 1.062,-1.56049 1.594,-2.29976 0.531,-0.7392 1.063,-1.4509 1.594,-2.1354 0.532,-0.6845 1.063,-1.3415 1.595,-1.9712 0.531,-0.6297 1.063,-1.2319 1.594,-1.8069 0.532,-0.575 1.063,-1.1225 1.595,-1.6427 0.531,-0.5202 1.063,-1.0129 1.594,-1.4783 0.532,-0.4655 1.063,-0.9035 1.594,-1.3142 0.532,-0.4107 1.063,-0.7939 1.595,-1.1498 0.531,-0.356 1.063,-0.6844 1.594,-0.9856 0.532,-0.3012 1.063,-0.5749 1.595,-0.8213 0.531,-0.2465 1.063,-0.4654 1.594,-0.6571 0.532,-0.1917 1.063,-0.3559 1.595,-0.4928 0.531,-0.1369 1.063,-0.2464 1.594,-0.3285 0.532,-0.0822 1.063,-0.1369 1.594,-0.1643 0.532,-0.0274 1.063,-0.0273 1.595,0 0.531,0.0274 1.063,0.0822 1.594,0.1643 0.532,0.0821 1.063,0.1916 1.595,0.3285 0.531,0.1369 1.063,0.3012 1.594,0.4928 0.532,0.1916 1.063,0.4107 1.595,0.6571 0.531,0.2463 1.063,0.5202 1.594,0.8213 0.531,0.3011 1.063,0.6297 1.594,0.9856 0.532,0.3559 1.063,0.7392 1.595,1.1498 0.531,0.4107 1.063,0.8488 1.594,1.3142 0.532,0.4654 1.063,0.9582 1.595,1.4783 0.531,0.5202 1.063,1.0678 1.594,1.6427 0.532,0.5749 1.063,1.1773 1.595,1.8069 0.531,0.6297 1.063,1.2868 1.594,1.9712 0.531,0.6844 1.063,1.3963 1.594,2.1354 0.532,0.73921 1.063,1.50584 1.595,2.29976 0.531,0.79392 1.063,1.6153 1.594,2.46398 0.532,0.84867 1.063,1.72481 1.595,2.62824 0.531,0.90343 1.063,1.834322 1.594,2.792508 0.532,0.958182 1.063,1.943832 1.595,2.956772 0.531,1.01294 1.063,2.05334 1.594,3.12104 0.531,1.0677 1.063,2.16285 1.594,3.2853 0.532,1.1225 1.063,2.2724 1.595,3.4496 0.531,1.1772 1.063,2.3818 1.594,3.6138 0.532,1.232 1.063,2.4914 1.595,3.7781 0.531,1.2867 1.063,2.6009 1.594,3.9424"
       title="-5*(x-2)*(x-2)+20"
       clip-path="url(#clipPath1334)"
       id="path16131"
       transform="matrix(0.49465797,0,0,1,-370.9756,56.690463)"
       inkscape:export-filename="C:\Users\Admin\Desktop\Libro F1\PNG\oblicuoAlcance.png"
       inkscape:export-xdpi="300"
       inkscape:export-ydpi="300" />
    <path
       style="fill:none;fill-opacity:0.7;stroke:#000000;stroke-width:0.617354;stroke-linecap:round;stroke-linejoin:round;stroke-miterlimit:4;stroke-dasharray:none"
       d="m 825.797,24.2578 c 0.532,-1.3415 1.063,-2.6556 1.595,-3.9424 0.531,-1.2868 1.063,-2.5461 1.594,-3.7781 0.532,-1.232 1.063,-2.4366 1.595,-3.6138 0.531,-1.1773 1.062,-2.3271 1.594,-3.4496 0.531,-1.1225 1.063,-2.21755 1.594,-3.2853 0.532,-1.06775 1.063,-2.10804 1.595,-3.12104 0.531,-1.01299 1.063,-1.99853 1.594,-2.956772 0.532,-0.958241 1.063,-1.889018 1.595,-2.792508 0.531,-0.90349 1.063,-1.77951 1.594,-2.62824 0.532,-0.84873 1.063,-1.67001 1.595,-2.46398 0.531,-0.79398 1.062,-1.56049 1.594,-2.29976 0.531,-0.7392 1.063,-1.4509 1.594,-2.1354 0.532,-0.6845 1.063,-1.3415 1.595,-1.9712 0.531,-0.6297 1.063,-1.2319 1.594,-1.8069 0.532,-0.575 1.063,-1.1225 1.595,-1.6427 0.531,-0.5202 1.063,-1.0129 1.594,-1.4783 0.532,-0.4655 1.063,-0.9035 1.594,-1.3142 0.532,-0.4107 1.063,-0.7939 1.595,-1.1498 0.531,-0.356 1.063,-0.6844 1.594,-0.9856 0.532,-0.3012 1.063,-0.5749 1.595,-0.8213 0.531,-0.2465 1.063,-0.4654 1.594,-0.6571 0.532,-0.1917 1.063,-0.3559 1.595,-0.4928 0.531,-0.1369 1.063,-0.2464 1.594,-0.3285 0.532,-0.0822 1.063,-0.1369 1.594,-0.1643 0.532,-0.0274 1.063,-0.0273 1.595,0 0.531,0.0274 1.063,0.0822 1.594,0.1643 0.532,0.0821 1.063,0.1916 1.595,0.3285 0.531,0.1369 1.063,0.3012 1.594,0.4928 0.532,0.1916 1.063,0.4107 1.595,0.6571 0.531,0.2463 1.063,0.5202 1.594,0.8213 0.531,0.3011 1.063,0.6297 1.594,0.9856 0.532,0.3559 1.063,0.7392 1.595,1.1498 0.531,0.4107 1.063,0.8488 1.594,1.3142 0.532,0.4654 1.063,0.9582 1.595,1.4783 0.531,0.5202 1.063,1.0678 1.594,1.6427 0.532,0.5749 1.063,1.1773 1.595,1.8069 0.531,0.6297 1.063,1.2868 1.594,1.9712 0.531,0.6844 1.063,1.3963 1.594,2.1354 0.532,0.73921 1.063,1.50584 1.595,2.29976 0.531,0.79392 1.063,1.6153 1.594,2.46398 0.532,0.84867 1.063,1.72481 1.595,2.62824 0.531,0.90343 1.063,1.834322 1.594,2.792508 0.532,0.958182 1.063,1.943832 1.595,2.956772 0.531,1.01294 1.063,2.05334 1.594,3.12104 0.531,1.0677 1.063,2.16285 1.594,3.2853 0.532,1.1225 1.063,2.2724 1.595,3.4496 0.531,1.1772 1.063,2.3818 1.594,3.6138 0.532,1.232 1.063,2.4914 1.595,3.7781 0.531,1.2867 1.063,2.6009 1.594,3.9424"
       title="-5*(x-2)*(x-2)+20"
       clip-path="url(#clipPath1334-2-4)"
       id="path16131-0-3"
       transform="matrix(0.86241889,0,0,0.27381368,-674.67159,74.305543)"
       inkscape:export-filename="C:\Users\Admin\Desktop\Libro F1\PNG\oblicuoAlcance.png"
       inkscape:export-xdpi="300"
       inkscape:export-ydpi="300" />
    <path
       style="fill:none;fill-opacity:0.7;stroke:#000000;stroke-width:0.359359;stroke-linecap:round;stroke-linejoin:round;stroke-miterlimit:4;stroke-dasharray:none"
       d="m 825.797,24.2578 c 0.532,-1.3415 1.063,-2.6556 1.595,-3.9424 0.531,-1.2868 1.063,-2.5461 1.594,-3.7781 0.532,-1.232 1.063,-2.4366 1.595,-3.6138 0.531,-1.1773 1.062,-2.3271 1.594,-3.4496 0.531,-1.1225 1.063,-2.21755 1.594,-3.2853 0.532,-1.06775 1.063,-2.10804 1.595,-3.12104 0.531,-1.01299 1.063,-1.99853 1.594,-2.956772 0.532,-0.958241 1.063,-1.889018 1.595,-2.792508 0.531,-0.90349 1.063,-1.77951 1.594,-2.62824 0.532,-0.84873 1.063,-1.67001 1.595,-2.46398 0.531,-0.79398 1.062,-1.56049 1.594,-2.29976 0.531,-0.7392 1.063,-1.4509 1.594,-2.1354 0.532,-0.6845 1.063,-1.3415 1.595,-1.9712 0.531,-0.6297 1.063,-1.2319 1.594,-1.8069 0.532,-0.575 1.063,-1.1225 1.595,-1.6427 0.531,-0.5202 1.063,-1.0129 1.594,-1.4783 0.532,-0.4655 1.063,-0.9035 1.594,-1.3142 0.532,-0.4107 1.063,-0.7939 1.595,-1.1498 0.531,-0.356 1.063,-0.6844 1.594,-0.9856 0.532,-0.3012 1.063,-0.5749 1.595,-0.8213 0.531,-0.2465 1.063,-0.4654 1.594,-0.6571 0.532,-0.1917 1.063,-0.3559 1.595,-0.4928 0.531,-0.1369 1.063,-0.2464 1.594,-0.3285 0.532,-0.0822 1.063,-0.1369 1.594,-0.1643 0.532,-0.0274 1.063,-0.0273 1.595,0 0.531,0.0274 1.063,0.0822 1.594,0.1643 0.532,0.0821 1.063,0.1916 1.595,0.3285 0.531,0.1369 1.063,0.3012 1.594,0.4928 0.532,0.1916 1.063,0.4107 1.595,0.6571 0.531,0.2463 1.063,0.5202 1.594,0.8213 0.531,0.3011 1.063,0.6297 1.594,0.9856 0.532,0.3559 1.063,0.7392 1.595,1.1498 0.531,0.4107 1.063,0.8488 1.594,1.3142 0.532,0.4654 1.063,0.9582 1.595,1.4783 0.531,0.5202 1.063,1.0678 1.594,1.6427 0.532,0.5749 1.063,1.1773 1.595,1.8069 0.531,0.6297 1.063,1.2868 1.594,1.9712 0.531,0.6844 1.063,1.3963 1.594,2.1354 0.532,0.73921 1.063,1.50584 1.595,2.29976 0.531,0.79392 1.063,1.6153 1.594,2.46398 0.532,0.84867 1.063,1.72481 1.595,2.62824 0.531,0.90343 1.063,1.834322 1.594,2.792508 0.532,0.958182 1.063,1.943832 1.595,2.956772 0.531,1.01294 1.063,2.05334 1.594,3.12104 0.531,1.0677 1.063,2.16285 1.594,3.2853 0.532,1.1225 1.063,2.2724 1.595,3.4496 0.531,1.1772 1.063,2.3818 1.594,3.6138 0.532,1.232 1.063,2.4914 1.595,3.7781 0.531,1.2867 1.063,2.6009 1.594,3.9424"
       title="-5*(x-2)*(x-2)+20"
       clip-path="url(#clipPath1334-2-8)"
       id="path16131-0-9"
       transform="matrix(0.86241997,0,0,0.80810399,-674.67244,61.344843)"
       inkscape:export-filename="C:\Users\Admin\Desktop\Libro F1\PNG\oblicuoAlcance.png"
       inkscape:export-xdpi="300"
       inkscape:export-ydpi="300" />
    <path
       style="fill:none;fill-opacity:0.7;stroke:#000000;stroke-width:0.541684;stroke-linecap:round;stroke-linejoin:round;stroke-miterlimit:4;stroke-dasharray:1.62505, 1.62505;stroke-dashoffset:0"
       d="m 825.797,24.2578 c 0.532,-1.3415 1.063,-2.6556 1.595,-3.9424 0.531,-1.2868 1.063,-2.5461 1.594,-3.7781 0.532,-1.232 1.063,-2.4366 1.595,-3.6138 0.531,-1.1773 1.062,-2.3271 1.594,-3.4496 0.531,-1.1225 1.063,-2.21755 1.594,-3.2853 0.532,-1.06775 1.063,-2.10804 1.595,-3.12104 0.531,-1.01299 1.063,-1.99853 1.594,-2.956772 0.532,-0.958241 1.063,-1.889018 1.595,-2.792508 0.531,-0.90349 1.063,-1.77951 1.594,-2.62824 0.532,-0.84873 1.063,-1.67001 1.595,-2.46398 0.531,-0.79398 1.062,-1.56049 1.594,-2.29976 0.531,-0.7392 1.063,-1.4509 1.594,-2.1354 0.532,-0.6845 1.063,-1.3415 1.595,-1.9712 0.531,-0.6297 1.063,-1.2319 1.594,-1.8069 0.532,-0.575 1.063,-1.1225 1.595,-1.6427 0.531,-0.5202 1.063,-1.0129 1.594,-1.4783 0.532,-0.4655 1.063,-0.9035 1.594,-1.3142 0.532,-0.4107 1.063,-0.7939 1.595,-1.1498 0.531,-0.356 1.063,-0.6844 1.594,-0.9856 0.532,-0.3012 1.063,-0.5749 1.595,-0.8213 0.531,-0.2465 1.063,-0.4654 1.594,-0.6571 0.532,-0.1917 1.063,-0.3559 1.595,-0.4928 0.531,-0.1369 1.063,-0.2464 1.594,-0.3285 0.532,-0.0822 1.063,-0.1369 1.594,-0.1643 0.532,-0.0274 1.063,-0.0273 1.595,0 0.531,0.0274 1.063,0.0822 1.594,0.1643 0.532,0.0821 1.063,0.1916 1.595,0.3285 0.531,0.1369 1.063,0.3012 1.594,0.4928 0.532,0.1916 1.063,0.4107 1.595,0.6571 0.531,0.2463 1.063,0.5202 1.594,0.8213 0.531,0.3011 1.063,0.6297 1.594,0.9856 0.532,0.3559 1.063,0.7392 1.595,1.1498 0.531,0.4107 1.063,0.8488 1.594,1.3142 0.532,0.4654 1.063,0.9582 1.595,1.4783 0.531,0.5202 1.063,1.0678 1.594,1.6427 0.532,0.5749 1.063,1.1773 1.595,1.8069 0.531,0.6297 1.063,1.2868 1.594,1.9712 0.531,0.6844 1.063,1.3963 1.594,2.1354 0.532,0.73921 1.063,1.50584 1.595,2.29976 0.531,0.79392 1.063,1.6153 1.594,2.46398 0.532,0.84867 1.063,1.72481 1.595,2.62824 0.531,0.90343 1.063,1.834322 1.594,2.792508 0.532,0.958182 1.063,1.943832 1.595,2.956772 0.531,1.01294 1.063,2.05334 1.594,3.12104 0.531,1.0677 1.063,2.16285 1.594,3.2853 0.532,1.1225 1.063,2.2724 1.595,3.4496 0.531,1.1772 1.063,2.3818 1.594,3.6138 0.532,1.232 1.063,2.4914 1.595,3.7781 0.531,1.2867 1.063,2.6009 1.594,3.9424"
       title="-5*(x-2)*(x-2)+20"
       clip-path="url(#clipPath1334-2-4)"
       id="path16258"
       transform="matrix(1,0,0,0.54528988,-788.28565,67.720123)"
       inkscape:export-filename="C:\Users\Admin\Desktop\Libro F1\PNG\oblicuoAlcance.png"
       inkscape:export-xdpi="300"
       inkscape:export-ydpi="300" />
    <path
       style="fill:none;fill-opacity:0.7;stroke:#000000;stroke-width:1.61162;stroke-linecap:round;stroke-linejoin:round;stroke-miterlimit:4;stroke-dasharray:none"
       d="m 825.797,24.2578 c 0.532,-1.3415 1.063,-2.6556 1.595,-3.9424 0.531,-1.2868 1.063,-2.5461 1.594,-3.7781 0.532,-1.232 1.063,-2.4366 1.595,-3.6138 0.531,-1.1773 1.062,-2.3271 1.594,-3.4496 0.531,-1.1225 1.063,-2.21755 1.594,-3.2853 0.532,-1.06775 1.063,-2.10804 1.595,-3.12104 0.531,-1.01299 1.063,-1.99853 1.594,-2.956772 0.532,-0.958241 1.063,-1.889018 1.595,-2.792508 0.531,-0.90349 1.063,-1.77951 1.594,-2.62824 0.532,-0.84873 1.063,-1.67001 1.595,-2.46398 0.531,-0.79398 1.062,-1.56049 1.594,-2.29976 0.531,-0.7392 1.063,-1.4509 1.594,-2.1354 0.532,-0.6845 1.063,-1.3415 1.595,-1.9712 0.531,-0.6297 1.063,-1.2319 1.594,-1.8069 0.532,-0.575 1.063,-1.1225 1.595,-1.6427 0.531,-0.5202 1.063,-1.0129 1.594,-1.4783 0.532,-0.4655 1.063,-0.9035 1.594,-1.3142 0.532,-0.4107 1.063,-0.7939 1.595,-1.1498 0.531,-0.356 1.063,-0.6844 1.594,-0.9856 0.532,-0.3012 1.063,-0.5749 1.595,-0.8213 0.531,-0.2465 1.063,-0.4654 1.594,-0.6571 0.532,-0.1917 1.063,-0.3559 1.595,-0.4928 0.531,-0.1369 1.063,-0.2464 1.594,-0.3285 0.532,-0.0822 1.063,-0.1369 1.594,-0.1643 0.532,-0.0274 1.063,-0.0273 1.595,0 0.531,0.0274 1.063,0.0822 1.594,0.1643 0.532,0.0821 1.063,0.1916 1.595,0.3285 0.531,0.1369 1.063,0.3012 1.594,0.4928 0.532,0.1916 1.063,0.4107 1.595,0.6571 0.531,0.2463 1.063,0.5202 1.594,0.8213 0.531,0.3011 1.063,0.6297 1.594,0.9856 0.532,0.3559 1.063,0.7392 1.595,1.1498 0.531,0.4107 1.063,0.8488 1.594,1.3142 0.532,0.4654 1.063,0.9582 1.595,1.4783 0.531,0.5202 1.063,1.0678 1.594,1.6427 0.532,0.5749 1.063,1.1773 1.595,1.8069 0.531,0.6297 1.063,1.2868 1.594,1.9712 0.531,0.6844 1.063,1.3963 1.594,2.1354 0.532,0.73921 1.063,1.50584 1.595,2.29976 0.531,0.79392 1.063,1.6153 1.594,2.46398 0.532,0.84867 1.063,1.72481 1.595,2.62824 0.531,0.90343 1.063,1.834322 1.594,2.792508 0.532,0.958182 1.063,1.943832 1.595,2.956772 0.531,1.01294 1.063,2.05334 1.594,3.12104 0.531,1.0677 1.063,2.16285 1.594,3.2853 0.532,1.1225 1.063,2.2724 1.595,3.4496 0.531,1.1772 1.063,2.3818 1.594,3.6138 0.532,1.232 1.063,2.4914 1.595,3.7781 0.531,1.2867 1.063,2.6009 1.594,3.9424"
       title="-5*(x-2)*(x-2)+20"
       clip-path="url(#clipPath1334-2-4)"
       id="path16260"
       transform="matrix(0.49465718,0,0,0.07005071,-370.97507,79.248383)"
       inkscape:export-filename="C:\Users\Admin\Desktop\Libro F1\PNG\oblicuoAlcance.png"
       inkscape:export-xdpi="300"
       inkscape:export-ydpi="300" />
    <circle
       style="fill:#000000;fill-opacity:1;fill-rule:nonzero;stroke:none;stroke-width:0.3;stroke-linecap:round;stroke-linejoin:round;stroke-miterlimit:4;stroke-dasharray:none;stroke-dashoffset:0;stroke-opacity:0.959839"
       id="path1353-4-5-5-1-7-98"
       cx="115.47901"
       cy="80.948227"
       r="1"
       inkscape:export-filename="C:\Users\Admin\Desktop\Libro F1\PNG\oblicuoAlcance.png"
       inkscape:export-xdpi="300"
       inkscape:export-ydpi="300" />
    <circle
       style="fill:#000000;fill-opacity:1;fill-rule:nonzero;stroke:none;stroke-width:0.3;stroke-linecap:round;stroke-linejoin:round;stroke-miterlimit:4;stroke-dasharray:none;stroke-dashoffset:0;stroke-opacity:0.959839"
       id="circle16563"
       cx="104.89564"
       cy="80.948227"
       r="1"
       inkscape:export-filename="C:\Users\Admin\Desktop\Libro F1\PNG\oblicuoAlcance.png"
       inkscape:export-xdpi="300"
       inkscape:export-ydpi="300" />
    <circle
       style="fill:#000000;fill-opacity:1;fill-rule:nonzero;stroke:none;stroke-width:0.3;stroke-linecap:round;stroke-linejoin:round;stroke-miterlimit:4;stroke-dasharray:none;stroke-dashoffset:0;stroke-opacity:0.959839"
       id="circle16565"
       cx="76.157608"
       cy="80.948227"
       r="1"
       inkscape:export-filename="C:\Users\Admin\Desktop\Libro F1\PNG\oblicuoAlcance.png"
       inkscape:export-xdpi="300"
       inkscape:export-ydpi="300" />
    <circle
       style="fill:#000000;fill-opacity:1;fill-rule:nonzero;stroke:none;stroke-width:0.3;stroke-linecap:round;stroke-linejoin:round;stroke-miterlimit:4;stroke-dasharray:none;stroke-dashoffset:0;stroke-opacity:0.959839"
       id="circle16684"
       cx="37.511612"
       cy="80.948227"
       r="1"
       inkscape:export-filename="C:\Users\Admin\Desktop\Libro F1\PNG\oblicuoAlcance.png"
       inkscape:export-xdpi="300"
       inkscape:export-ydpi="300" />
    <flowRoot
       xml:space="preserve"
       id="flowRoot1027-6-5-1-5-15-37"
       style="font-style:normal;font-variant:normal;font-weight:normal;font-stretch:normal;font-size:26.6667px;line-height:1.25;font-family:'Math Symbols';-inkscape-font-specification:'Math Symbols';letter-spacing:0px;word-spacing:0px;fill:#000000;fill-opacity:1;stroke:none"
       transform="matrix(0.26458333,0,0,0.26458333,-14.944891,-67.705327)"
       inkscape:export-filename="C:\Users\mrmal\Desktop\RFB\Apunte IAP\PNG\sin1.png"
       inkscape:export-xdpi="300"
       inkscape:export-ydpi="300"><flowRegion
         id="flowRegion1023-6-9-7-1-2-40"><rect
           id="rect1021-2-9-4-3-2-5"
           width="79.846931"
           height="62.55191"
           x="150.68999"
           y="314.73935" /></flowRegion><flowPara
         id="flowPara1025-1-57-2-9-2-19"
         style="font-style:normal;font-variant:normal;font-weight:normal;font-stretch:normal;font-size:32px;font-family:'CMU Serif';-inkscape-font-specification:'CMU Serif'">$y$</flowPara></flowRoot>
    <flowRoot
       xml:space="preserve"
       id="flowRoot1027-6-5-1-5-15-37-1"
       style="font-style:normal;font-variant:normal;font-weight:normal;font-stretch:normal;font-size:26.6667px;line-height:1.25;font-family:'Math Symbols';-inkscape-font-specification:'Math Symbols';letter-spacing:0px;word-spacing:0px;fill:#000000;fill-opacity:1;stroke:none"
       transform="matrix(0.26458333,0,0,0.26458333,32.554984,0.57149128)"
       inkscape:export-filename="C:\Users\mrmal\Desktop\RFB\Apunte IAP\PNG\sin1.png"
       inkscape:export-xdpi="300"
       inkscape:export-ydpi="300"><flowRegion
         id="flowRegion1023-6-9-7-1-2-40-7"><rect
           id="rect1021-2-9-4-3-2-5-1"
           width="1054.0391"
           height="130.38013"
           x="150.68999"
           y="314.73935" /></flowRegion><flowPara
         id="flowPara1025-1-57-2-9-2-19-8"
         style="font-style:normal;font-variant:normal;font-weight:normal;font-stretch:normal;font-size:32px;font-family:'CMU Serif';-inkscape-font-specification:'CMU Serif'">$\frac{v_0^2}{2g}$</flowPara></flowRoot>
    <flowRoot
       xml:space="preserve"
       id="flowRoot1027-6-5-1-5-15-37-7"
       style="font-style:normal;font-variant:normal;font-weight:normal;font-stretch:normal;font-size:26.6667px;line-height:1.25;font-family:'Math Symbols';-inkscape-font-specification:'Math Symbols';letter-spacing:0px;word-spacing:0px;fill:#000000;fill-opacity:1;stroke:none"
       transform="matrix(0.26458333,0,0,0.26458333,85.210369,-7.9416227)"
       inkscape:export-filename="C:\Users\mrmal\Desktop\RFB\Apunte IAP\PNG\sin1.png"
       inkscape:export-xdpi="300"
       inkscape:export-ydpi="300"><flowRegion
         id="flowRegion1023-6-9-7-1-2-40-3"><rect
           id="rect1021-2-9-4-3-2-5-9"
           width="79.846931"
           height="62.55191"
           x="150.68999"
           y="314.73935" /></flowRegion><flowPara
         id="flowPara1025-1-57-2-9-2-19-3"
         style="font-style:normal;font-variant:normal;font-weight:normal;font-stretch:normal;font-size:32px;font-family:'CMU Serif';-inkscape-font-specification:'CMU Serif'">$x$</flowPara></flowRoot>
    <flowRoot
       xml:space="preserve"
       id="flowRoot1027-6-5-1-5-15-37-7-9"
       style="font-style:normal;font-variant:normal;font-weight:normal;font-stretch:normal;font-size:26.6667px;line-height:1.25;font-family:'Math Symbols';-inkscape-font-specification:'Math Symbols';letter-spacing:0px;word-spacing:0px;fill:#000000;fill-opacity:1;stroke:none"
       transform="matrix(0.26458333,0,0,0.26458333,11.650613,-64.892694)"
       inkscape:export-filename="C:\Users\mrmal\Desktop\RFB\Apunte IAP\PNG\sin1.png"
       inkscape:export-xdpi="300"
       inkscape:export-ydpi="300"><flowRegion
         id="flowRegion1023-6-9-7-1-2-40-3-9"><rect
           id="rect1021-2-9-4-3-2-5-9-4"
           width="223.70239"
           height="93.111877"
           x="150.68999"
           y="314.73935" /></flowRegion><flowPara
         id="flowPara1025-1-57-2-9-2-19-3-1"
         style="font-style:normal;font-variant:normal;font-weight:normal;font-stretch:normal;font-size:32px;font-family:'CMU Serif';-inkscape-font-specification:'CMU Serif'">$\ang{75}$</flowPara></flowRoot>
    <flowRoot
       xml:space="preserve"
       id="flowRoot1027-6-5-1-5-15-37-7-9-0"
       style="font-style:normal;font-variant:normal;font-weight:normal;font-stretch:normal;font-size:26.6667px;line-height:1.25;font-family:'Math Symbols';-inkscape-font-specification:'Math Symbols';letter-spacing:0px;word-spacing:0px;fill:#000000;fill-opacity:1;stroke:none"
       transform="matrix(0.26458333,0,0,0.26458333,42.271897,-49.151712)"
       inkscape:export-filename="C:\Users\mrmal\Desktop\RFB\Apunte IAP\PNG\sin1.png"
       inkscape:export-xdpi="300"
       inkscape:export-ydpi="300"><flowRegion
         id="flowRegion1023-6-9-7-1-2-40-3-9-5"><rect
           id="rect1021-2-9-4-3-2-5-9-4-3"
           width="223.70239"
           height="93.111877"
           x="150.68999"
           y="314.73935" /></flowRegion><flowPara
         id="flowPara1025-1-57-2-9-2-19-3-1-1"
         style="font-style:normal;font-variant:normal;font-weight:normal;font-stretch:normal;font-size:32px;font-family:'CMU Serif';-inkscape-font-specification:'CMU Serif'">$\ang{60}$</flowPara></flowRoot>
    <flowRoot
       xml:space="preserve"
       id="flowRoot1027-6-5-1-5-15-37-7-9-04"
       style="font-style:normal;font-variant:normal;font-weight:normal;font-stretch:normal;font-size:26.6667px;line-height:1.25;font-family:'Math Symbols';-inkscape-font-specification:'Math Symbols';letter-spacing:0px;word-spacing:0px;fill:#000000;fill-opacity:1;stroke:none"
       transform="matrix(0.26458333,0,0,0.26458333,69.289827,-24.105896)"
       inkscape:export-filename="C:\Users\mrmal\Desktop\RFB\Apunte IAP\PNG\sin1.png"
       inkscape:export-xdpi="300"
       inkscape:export-ydpi="300"><flowRegion
         id="flowRegion1023-6-9-7-1-2-40-3-9-57"><rect
           id="rect1021-2-9-4-3-2-5-9-4-9"
           width="223.70239"
           height="93.111877"
           x="150.68999"
           y="314.73935" /></flowRegion><flowPara
         id="flowPara1025-1-57-2-9-2-19-3-1-6"
         style="font-style:normal;font-variant:normal;font-weight:normal;font-stretch:normal;font-size:32px;font-family:'CMU Serif';-inkscape-font-specification:'CMU Serif'">$\ang{45}$</flowPara></flowRoot>
    <flowRoot
       xml:space="preserve"
       id="flowRoot1027-6-5-1-5-15-37-7-9-1"
       style="font-style:normal;font-variant:normal;font-weight:normal;font-stretch:normal;font-size:26.6667px;line-height:1.25;font-family:'Math Symbols';-inkscape-font-specification:'Math Symbols';letter-spacing:0px;word-spacing:0px;fill:#000000;fill-opacity:1;stroke:none"
       transform="matrix(0.26458333,0,0,0.26458333,39.11652,-13.259282)"
       inkscape:export-filename="C:\Users\mrmal\Desktop\RFB\Apunte IAP\PNG\sin1.png"
       inkscape:export-xdpi="300"
       inkscape:export-ydpi="300"><flowRegion
         id="flowRegion1023-6-9-7-1-2-40-3-9-8"><rect
           id="rect1021-2-9-4-3-2-5-9-4-7"
           width="223.70239"
           height="93.111877"
           x="150.68999"
           y="314.73935" /></flowRegion><flowPara
         id="flowPara1025-1-57-2-9-2-19-3-1-8"
         style="font-style:normal;font-variant:normal;font-weight:normal;font-stretch:normal;font-size:32px;font-family:'CMU Serif';-inkscape-font-specification:'CMU Serif'">$\ang{30}$</flowPara></flowRoot>
    <flowRoot
       xml:space="preserve"
       id="flowRoot1027-6-5-1-5-15-37-7-9-7"
       style="font-style:normal;font-variant:normal;font-weight:normal;font-stretch:normal;font-size:26.6667px;line-height:1.25;font-family:'Math Symbols';-inkscape-font-specification:'Math Symbols';letter-spacing:0px;word-spacing:0px;fill:#000000;fill-opacity:1;stroke:none"
       transform="matrix(0.26458333,0,0,0.26458333,19.59261,-15.428605)"
       inkscape:export-filename="C:\Users\mrmal\Desktop\RFB\Apunte IAP\PNG\sin1.png"
       inkscape:export-xdpi="300"
       inkscape:export-ydpi="300"><flowRegion
         id="flowRegion1023-6-9-7-1-2-40-3-9-1"><rect
           id="rect1021-2-9-4-3-2-5-9-4-33"
           width="223.70239"
           height="93.111877"
           x="150.68999"
           y="314.73935" /></flowRegion><flowPara
         id="flowPara1025-1-57-2-9-2-19-3-1-80"
         style="font-style:normal;font-variant:normal;font-weight:normal;font-stretch:normal;font-size:32px;font-family:'CMU Serif';-inkscape-font-specification:'CMU Serif'">$\ang{15}$</flowPara></flowRoot>
    <flowRoot
       xml:space="preserve"
       id="flowRoot30907"
       style="font-style:normal;font-variant:normal;font-weight:normal;font-stretch:normal;font-size:26.6667px;line-height:1.25;font-family:'Math Symbols';-inkscape-font-specification:'Math Symbols';letter-spacing:0px;word-spacing:0px;fill:#000000;fill-opacity:1;stroke:none"
       transform="matrix(0.26458333,0,0,0.26458333,59.572911,0.57149128)"
       inkscape:export-filename="C:\Users\mrmal\Desktop\RFB\Apunte IAP\PNG\sin1.png"
       inkscape:export-xdpi="300"
       inkscape:export-ydpi="300"><flowRegion
         id="flowRegion30903"><rect
           id="rect30901"
           width="1054.0391"
           height="130.38013"
           x="150.68999"
           y="314.73935" /></flowRegion><flowPara
         id="flowPara30905"
         style="font-style:normal;font-variant:normal;font-weight:normal;font-stretch:normal;font-size:32px;font-family:'CMU Serif';-inkscape-font-specification:'CMU Serif'">$\frac{\sqrt{3} \, v_0^2}{2g}$</flowPara></flowRoot>
    <flowRoot
       xml:space="preserve"
       id="flowRoot30915"
       style="font-style:normal;font-variant:normal;font-weight:normal;font-stretch:normal;font-size:26.6667px;line-height:1.25;font-family:'Math Symbols';-inkscape-font-specification:'Math Symbols';letter-spacing:0px;word-spacing:0px;fill:#000000;fill-opacity:1;stroke:none"
       transform="matrix(0.26458333,0,0,0.26458333,79.852629,0.57149128)"
       inkscape:export-filename="C:\Users\mrmal\Desktop\RFB\Apunte IAP\PNG\sin1.png"
       inkscape:export-xdpi="300"
       inkscape:export-ydpi="300"><flowRegion
         id="flowRegion30911"><rect
           id="rect30909"
           width="1054.0391"
           height="130.38013"
           x="150.68999"
           y="314.73935" /></flowRegion><flowPara
         id="flowPara30913"
         style="font-style:normal;font-variant:normal;font-weight:normal;font-stretch:normal;font-size:32px;font-family:'CMU Serif';-inkscape-font-specification:'CMU Serif'">$\frac{v_0^2}{g}$</flowPara></flowRoot>
  </g>
</svg>
