<?xml version="1.0" encoding="UTF-8" standalone="no"?>
<!-- Created with Inkscape (http://www.inkscape.org/) -->

<svg
   width="240mm"
   height="210mm"
   viewBox="0 0 240 210"
   version="1.1"
   id="svg7910"
   inkscape:version="1.1 (c68e22c387, 2021-05-23)"
   sodipodi:docname="dinamica-elastica-1.svg"
   xmlns:inkscape="http://www.inkscape.org/namespaces/inkscape"
   xmlns:sodipodi="http://sodipodi.sourceforge.net/DTD/sodipodi-0.dtd"
   xmlns:xlink="http://www.w3.org/1999/xlink"
   xmlns="http://www.w3.org/2000/svg"
   xmlns:svg="http://www.w3.org/2000/svg">
  <sodipodi:namedview
     id="namedview7912"
     pagecolor="#ffffff"
     bordercolor="#666666"
     borderopacity="1.0"
     inkscape:pageshadow="2"
     inkscape:pageopacity="0.0"
     inkscape:pagecheckerboard="0"
     inkscape:document-units="mm"
     showgrid="false"
     inkscape:zoom="0.67081229"
     inkscape:cx="562.00521"
     inkscape:cy="395.78881"
     inkscape:window-width="1920"
     inkscape:window-height="1001"
     inkscape:window-x="-9"
     inkscape:window-y="-9"
     inkscape:window-maximized="1"
     inkscape:current-layer="layer1"
     width="270mm" />
  <defs
     id="defs7907">
    <linearGradient
       inkscape:collect="always"
       xlink:href="#linearGradient4496"
       id="linearGradient6321"
       gradientUnits="userSpaceOnUse"
       gradientTransform="matrix(0,0.29470172,-27.498648,0,3140.0324,316.76541)"
       x1="-135.54034"
       y1="104.68308"
       x2="-30.737953"
       y2="104.68308" />
    <linearGradient
       inkscape:collect="always"
       id="linearGradient4496">
      <stop
         style="stop-color:#000000;stop-opacity:1;"
         offset="0"
         id="stop4492" />
      <stop
         style="stop-color:#000000;stop-opacity:0;"
         offset="1"
         id="stop4494" />
    </linearGradient>
  </defs>
  <g
     inkscape:label="Layer 1"
     inkscape:groupmode="layer"
     id="layer1">
    <g
       inkscape:export-filename="C:\Backup\Academic\Apuntes MMR\Editting\LaTex\Super Apunte F1\PNG\elasticF.png"
       style="stroke-width:0.916515"
       inkscape:export-ydpi="300"
       inkscape:export-xdpi="300"
       transform="matrix(0,-1.1904762,-1,0,332.47405,417.08341)"
       id="g4644">
      <path
         inkscape:connector-curvature="0"
         id="path2536-4"
         d="M 191.23135,276.86563 H 331.54786"
         style="fill:none;stroke:#000000;stroke-width:0.274955;stroke-linecap:butt;stroke-linejoin:miter;stroke-miterlimit:4;stroke-dasharray:none;stroke-opacity:1" />
      <path
         inkscape:connector-curvature="0"
         id="path1000-6-8"
         d="m 331.54786,276.86563 v 30.79703 H 191.23134 v -30.79703 z"
         style="opacity:0.2;fill:url(#linearGradient6321);fill-opacity:1;stroke:none;stroke-width:0.274955;stroke-linecap:butt;stroke-linejoin:miter;stroke-miterlimit:4;stroke-dasharray:none;stroke-opacity:1" />
    </g>
    <path
       inkscape:export-filename="C:\Backup\Academic\Apuntes MMR\Editting\LaTex\Super Apunte F1\PNG\elasticF.png"
       inkscape:export-ydpi="300"
       inkscape:export-xdpi="300"
       inkscape:connector-curvature="0"
       id="path4646"
       d="M 55.608417,92.541847 H 76.708146"
       style="fill:none;stroke:#000000;stroke-width:0.5;stroke-linecap:butt;stroke-linejoin:miter;stroke-miterlimit:4;stroke-dasharray:none;stroke-opacity:1" />
    <path
       inkscape:export-filename="C:\Backup\Academic\Apuntes MMR\Editting\LaTex\Super Apunte F1\PNG\elasticF.png"
       inkscape:export-ydpi="300"
       inkscape:export-xdpi="300"
       style="fill:none;stroke:#000000;stroke-width:0.5;stroke-linecap:butt;stroke-linejoin:miter;stroke-miterlimit:4;stroke-dasharray:none;stroke-opacity:1"
       d="M 55.608417,144.70256 H 76.708146"
       id="path4648"
       inkscape:connector-curvature="0" />
    <path
       inkscape:export-filename="C:\Backup\Academic\Apuntes MMR\Editting\LaTex\Super Apunte F1\PNG\elasticF.png"
       inkscape:export-ydpi="300"
       inkscape:export-xdpi="300"
       inkscape:connector-curvature="0"
       id="path4646-1"
       d="M 55.608417,40.381137 H 76.708146"
       style="fill:none;stroke:#000000;stroke-width:0.5;stroke-linecap:butt;stroke-linejoin:miter;stroke-miterlimit:4;stroke-dasharray:none;stroke-opacity:1" />
    <circle
       inkscape:export-filename="C:\Backup\Academic\Apuntes MMR\Editting\LaTex\Super Apunte F1\PNG\elasticF.png"
       inkscape:export-ydpi="300"
       inkscape:export-xdpi="300"
       style="fill:#000000;fill-opacity:0.392157;fill-rule:evenodd;stroke:none;stroke-width:0.3;stroke-linecap:round;stroke-linejoin:round;stroke-miterlimit:4;stroke-dasharray:none;stroke-dashoffset:0;stroke-opacity:1;paint-order:markers stroke fill"
       id="circle2802-7-7"
       cx="175.06622"
       cy="92.541847"
       r="2.6458333" />
    <circle
       inkscape:export-filename="C:\Backup\Academic\Apuntes MMR\Editting\LaTex\Super Apunte F1\PNG\elasticF.png"
       inkscape:export-ydpi="300"
       inkscape:export-xdpi="300"
       style="fill:#000000;fill-opacity:0.392157;fill-rule:evenodd;stroke:none;stroke-width:0.3;stroke-linecap:round;stroke-linejoin:round;stroke-miterlimit:4;stroke-dasharray:none;stroke-dashoffset:0;stroke-opacity:1;paint-order:markers stroke fill"
       id="circle2802-7-7-7"
       cx="150.57654"
       cy="144.70255"
       r="2.6458333" />
    <circle
       inkscape:export-filename="C:\Backup\Academic\Apuntes MMR\Editting\LaTex\Super Apunte F1\PNG\elasticF.png"
       inkscape:export-ydpi="300"
       inkscape:export-xdpi="300"
       style="fill:#000000;fill-opacity:0.392157;fill-rule:evenodd;stroke:none;stroke-width:0.3;stroke-linecap:round;stroke-linejoin:round;stroke-miterlimit:4;stroke-dasharray:none;stroke-dashoffset:0;stroke-opacity:1;paint-order:markers stroke fill"
       id="circle2802-7-7-9"
       cx="199.55792"
       cy="40.38113"
       r="2.6458333" />
    <path
       inkscape:export-filename="C:\Backup\Academic\Apuntes MMR\Editting\LaTex\Super Apunte F1\PNG\elasticF.png"
       inkscape:export-ydpi="300"
       inkscape:export-xdpi="300"
       inkscape:connector-curvature="0"
       id="path4871"
       d="M 199.55792,189.42702 V 43.026957"
       style="fill:none;stroke:#000000;stroke-width:0.3;stroke-linecap:butt;stroke-linejoin:miter;stroke-miterlimit:4;stroke-dasharray:7.2, 7.2;stroke-dashoffset:0;stroke-opacity:1" />
    <path
       inkscape:export-filename="C:\Backup\Academic\Apuntes MMR\Editting\LaTex\Super Apunte F1\PNG\elasticF.png"
       inkscape:export-ydpi="300"
       inkscape:export-xdpi="300"
       inkscape:connector-curvature="0"
       id="path4873"
       d="M 175.06622,189.42705 V 95.187687"
       style="fill:none;stroke:#000000;stroke-width:0.3;stroke-linecap:butt;stroke-linejoin:miter;stroke-miterlimit:4;stroke-dasharray:7.2, 7.2;stroke-dashoffset:0;stroke-opacity:1" />
    <path
       inkscape:export-filename="C:\Backup\Academic\Apuntes MMR\Editting\LaTex\Super Apunte F1\PNG\elasticF.png"
       inkscape:export-ydpi="300"
       inkscape:export-xdpi="300"
       inkscape:connector-curvature="0"
       id="path4879"
       d="M 55.608417,189.42705 H 218.32009"
       style="fill:none;stroke:#000000;stroke-width:0.3;stroke-linecap:butt;stroke-linejoin:miter;stroke-miterlimit:4;stroke-dasharray:none;stroke-opacity:1" />
    <path
       inkscape:export-filename="C:\Backup\Academic\Apuntes MMR\Editting\LaTex\Super Apunte F1\PNG\elasticF.png"
       inkscape:export-ydpi="300"
       inkscape:export-xdpi="300"
       style="fill:none;stroke:#000000;stroke-width:0.3;stroke-linecap:butt;stroke-linejoin:miter;stroke-miterlimit:4;stroke-dasharray:7.2, 7.2;stroke-dashoffset:0;stroke-opacity:1"
       d="M 150.57654,189.42704 V 147.34839"
       id="path4896"
       inkscape:connector-curvature="0" />
    <path
       inkscape:export-filename="C:\Backup\Academic\Apuntes MMR\Editting\LaTex\Super Apunte F1\PNG\elasticF.png"
       inkscape:export-ydpi="300"
       inkscape:export-xdpi="300"
       inkscape:connector-curvature="0"
       d="m 151.54001,185.45097 c -0.27029,-2.49581 8.83628,-1.34623 8.83628,-1.34623 0,0 1.84499,0.19697 2.39228,-1.72626 m 11.22857,3.07249 c 0.27028,-2.49581 -8.83632,-1.34623 -8.83632,-1.34623 0,0 -1.84498,0.19697 -2.39225,-1.72626"
       style="display:inline;fill:none;stroke:#000000;stroke-width:0.2;stroke-linecap:butt;stroke-linejoin:miter;stroke-miterlimit:4;stroke-dasharray:none;stroke-opacity:1"
       id="path2972-13" />
    <path
       id="path4937"
       style="display:inline;fill:none;stroke:#000000;stroke-width:0.2;stroke-linecap:butt;stroke-linejoin:miter;stroke-miterlimit:4;stroke-dasharray:none;stroke-opacity:1"
       d="m 176.10846,185.45097 c -0.27029,-2.49581 8.83628,-1.34623 8.83628,-1.34623 0,0 1.84499,0.19697 2.39228,-1.72626 m 11.22857,3.07249 c 0.27028,-2.49581 -8.83632,-1.34623 -8.83632,-1.34623 0,0 -1.84498,0.19697 -2.39225,-1.72626"
       inkscape:connector-curvature="0"
       inkscape:export-xdpi="300"
       inkscape:export-ydpi="300"
       inkscape:export-filename="C:\Backup\Academic\Apuntes MMR\Editting\LaTex\Super Apunte F1\PNG\elasticF.png" />
    <circle
       inkscape:export-filename="C:\Backup\Academic\Apuntes MMR\Editting\LaTex\Super Apunte F1\PNG\elasticF.png"
       inkscape:export-ydpi="300"
       inkscape:export-xdpi="300"
       style="fill:#000000;fill-opacity:1;fill-rule:evenodd;stroke:none;stroke-width:0.3;stroke-linecap:round;stroke-linejoin:round;stroke-miterlimit:4;stroke-dasharray:none;stroke-dashoffset:0;stroke-opacity:1;paint-order:markers stroke fill"
       id="circle2802-7-7-7-7"
       cx="150.57654"
       cy="189.42703"
       r="2.6458333" />
    <circle
       inkscape:export-filename="C:\Backup\Academic\Apuntes MMR\Editting\LaTex\Super Apunte F1\PNG\elasticF.png"
       inkscape:export-ydpi="300"
       inkscape:export-xdpi="300"
       r="2.6458333"
       cy="189.42703"
       cx="175.06622"
       id="circle5017"
       style="fill:#000000;fill-opacity:1;fill-rule:evenodd;stroke:none;stroke-width:0.3;stroke-linecap:round;stroke-linejoin:round;stroke-miterlimit:4;stroke-dasharray:none;stroke-dashoffset:0;stroke-opacity:1;paint-order:markers stroke fill" />
    <circle
       inkscape:export-filename="C:\Backup\Academic\Apuntes MMR\Editting\LaTex\Super Apunte F1\PNG\elasticF.png"
       inkscape:export-ydpi="300"
       inkscape:export-xdpi="300"
       style="fill:#000000;fill-opacity:1;fill-rule:evenodd;stroke:none;stroke-width:0.3;stroke-linecap:round;stroke-linejoin:round;stroke-miterlimit:4;stroke-dasharray:none;stroke-dashoffset:0;stroke-opacity:1;paint-order:markers stroke fill"
       id="circle5019"
       cx="199.55792"
       cy="189.42703"
       r="2.6458333" />
    <g
       inkscape:export-filename="C:\Backup\Academic\Apuntes MMR\Editting\LaTex\Super Apunte F1\PNG\elasticF.png"
       inkscape:export-ydpi="300"
       inkscape:export-xdpi="300"
       id="g3069-9-8-0"
       transform="matrix(0,-1,-1,0,412.00283,220.47347)">
      <path
         inkscape:connector-curvature="0"
         id="path3065-6-5-3"
         d="m 75.770909,248.29607 v 10.48439"
         style="fill:none;stroke:#000000;stroke-width:0.264583px;stroke-linecap:butt;stroke-linejoin:miter;stroke-opacity:1" />
      <path
         sodipodi:nodetypes="cccc"
         inkscape:connector-curvature="0"
         id="path3067-4-5-8"
         d="m 75.770909,248.29608 h -1.31852 c 0,0 1.0788,-0.67126 1.31852,-5.13025 0.23972,4.45899 1.31852,5.13025 1.31852,5.13025 z"
         style="fill:#000000;fill-opacity:1;stroke:#000000;stroke-width:0.265;stroke-linecap:round;stroke-linejoin:round;stroke-miterlimit:4;stroke-dasharray:none;stroke-opacity:1" />
    </g>
    <g
       inkscape:export-filename="C:\Backup\Academic\Apuntes MMR\Editting\LaTex\Super Apunte F1\PNG\elasticF.png"
       inkscape:export-ydpi="300"
       inkscape:export-xdpi="300"
       id="g3069-9-8-0-9"
       transform="rotate(-90,37.594979,78.55706)">
      <path
         inkscape:connector-curvature="0"
         id="path3065-6-5-3-9"
         d="m 75.770909,248.29607 v 10.48439"
         style="fill:none;stroke:#000000;stroke-width:0.264583px;stroke-linecap:butt;stroke-linejoin:miter;stroke-opacity:1" />
      <path
         sodipodi:nodetypes="cccc"
         inkscape:connector-curvature="0"
         id="path3067-4-5-8-3"
         d="m 75.770909,248.29608 h -1.31852 c 0,0 1.0788,-0.67126 1.31852,-5.13025 0.23972,4.45899 1.31852,5.13025 1.31852,5.13025 z"
         style="fill:#000000;fill-opacity:1;stroke:#000000;stroke-width:0.265;stroke-linecap:round;stroke-linejoin:round;stroke-miterlimit:4;stroke-dasharray:none;stroke-opacity:1" />
    </g>
    <path
       inkscape:export-ydpi="300"
       inkscape:export-xdpi="300"
       inkscape:export-filename="C:\Backup\Academic\Apuntes MMR\Editting\LaTex\Super Apunte F1\PNG\elasticF.png"
       inkscape:connector-curvature="0"
       id="path3890-5"
       d="m 76.708126,92.541847 c 0.35651,3.01084 0.93029,5.91037 1.67592,8.280013 0.74578,2.36957 1.66219,4.19922 2.65386,5.22776 0.99168,1.02854 2.05662,1.24828 3.07809,0.63208 1.02155,-0.61609 1.99711,-2.07109 2.82346,-4.14991 0.82637,-2.07895 1.5011,-4.779103 1.96504,-7.707063 0.46415,-2.92792 0.71536,-6.07622 0.75594,-8.98879 0.039,-2.91268 -0.12874,-5.57957 -0.44625,-7.6171 -0.31751,-2.03742 -0.78142,-3.43572 -1.28687,-3.99663 -0.5055,-0.56055 -1.05026,-0.27737 -1.51801,0.80373 -0.46731,1.08145 -0.85586,2.96241 -1.07126,5.36674 -0.21532,2.40439 -0.2551,5.3279 -0.0788,8.34536 0.1771,3.01759 0.57339,6.12065 1.1672,8.86056 0.59368,2.739803 1.38596,5.106293 2.29807,6.759693 0.91209,1.65341 1.94279,2.58467 2.98026,2.66345 1.03747,0.0785 2.07931,-0.70034 3.01249,-2.21913 0.93316,-1.51909 1.7551,-3.77798 2.38512,-6.446513 0.63032,-2.66851 1.06584,-5.74075 1.28328,-8.77094 0.21766,-3.03013 0.21531,-6.00871 0.0311,-8.50597 -0.18253,-2.49715 -0.54607,-4.50278 -0.99809,-5.72995 -0.45244,-1.22705 -0.99253,-1.66753 -1.50443,-1.26229 -0.51177,0.40529 -0.9931,1.65987 -1.33672,3.57784 -0.34405,1.91799 -0.54765,4.49736 -0.54453,7.36196 0.003,2.86447 0.21376,6.00714 0.63813,8.97254 0.42437,2.96531 1.064,5.74348 1.86197,7.934373 0.79799,2.19081 1.75376,3.78439 2.76605,4.55388 1.012274,0.76953 2.079084,0.70837 3.083414,-0.17154 1.00437,-0.87904 1.94372,-2.5774 2.72025,-4.84537 0.77622,-2.268053 1.38776,-5.101943 1.78379,-8.089393 0.39553,-2.98741 0.57496,-6.12024 0.55078,-8.94523 -0.0234,-2.82494 -0.25432,-5.33186 -0.61552,-7.16034 -0.36197,-1.82861 -0.85485,-2.96945 -1.37012,-3.2617 -0.51563,-0.2919 -1.05033,0.26982 -1.4904,1.59985 -0.43999,1.33033 -0.78254,3.42916 -0.94105,5.98923 -0.15835,2.56012 -0.13103,5.57625 0.1162,8.61039 0.24649,3.0341 0.713,6.07722 1.36852,8.68967 0.6553,2.612413 1.49946,4.784033 2.44676,6.203563 0.94728,1.41965 1.9964,2.07872 3.03253,1.88629 1.03615,-0.19247 2.057,-1.24048 2.95274,-2.98804 0.89572,-1.74754 1.66359,-4.193343 2.23104,-6.980193 0.56714,-2.78685 0.93215,-5.90834 1.08045,-8.91167 0.14818,-3.00339 0.0796,-5.8791 -0.15914,-8.21237 -0.23793,-2.3333 -0.64436,-4.11416 -1.12228,-5.08856 -0.47742,-0.9744 -1.02466,-1.13484 -1.52416,-0.46287 -0.49929,0.67203 -0.94902,2.1796 -1.24641,4.29994 -0.2972,2.12028 -0.43998,4.85049 -0.37054,7.79306 0.0702,2.94251 0.35183,6.08958 0.84391,8.98558 0.49225,2.89605 1.19335,5.530903 2.0393,7.525473 0.84595,1.99462 1.83553,3.33936 2.86239,3.8437 1.02694,0.50414 2.08905,0.16223 3.0703,-0.97277 0.98122,-1.13485 1.87898,-3.06318 2.6015,-5.50206 0.7224,-2.439013 1.26747,-5.384083 1.5945,-8.407123 0.32686,-3.02299 0.4353,-6.1154 0.34637,-8.8302 -0.0889,-2.71474 -0.3729,-5.04152 -0.77387,-6.64648 -0.40099,-1.60497 -0.91733,-2.47935 -1.43619,-2.50075 -0.51876,-0.0234 -1.03794,0.81489 -1.44478,2.38329 -0.40721,1.56857 -0.69898,3.86859 -0.79689,6.56386 -0.0983,2.69537 -3.1e-4,5.78011 0.31595,8.80653 0.31594,3.02653 0.85158,5.98532 1.56514,8.449493 0.71381,2.46424 1.60518,4.42364 2.58217,5.59807 0.97709,1.17437 2.03813,1.55594 3.06679,1.09389 1.02865,-0.46228 2.02244,-1.77104 2.87555,-3.7331 0.85316,-1.96212 1.56305,-4.575163 2.06536,-7.458133 0.5024,-2.8829 0.79527,-6.02864 0.87531,-8.98126 0.0804,-2.95269 -0.0547,-5.70244 -0.34405,-7.85314 -0.28942,-2.15076 -0.73406,-3.69269 -1.23125,-4.40658 -0.49692,-0.71418 -1.04448,-0.59283 -1.52559,0.34075 -0.48132,0.93376 -0.89314,2.682 -1.13973,4.98767 -0.24653,2.30566 -0.32534,5.16502 -0.18802,8.16195 0.13734,2.997 0.49226,6.12338 1.04941,8.92691 0.55699,2.80348 1.3173,5.273933 2.20665,7.056383 0.88931,1.78238 1.90673,2.86761 2.94209,3.1027 1.03545,0.2355 2.0865,-0.38494 3.03885,-1.76679 0.95244,-1.38155 1.80346,-3.52441 2.46828,-6.114833 0.66465,-2.59047 1.14107,-5.62306 1.39866,-8.65768 0.25745,-3.03449 0.29489,-6.06173 0.14585,-8.64453 -0.14894,-2.58286 -0.48445,-4.711 -0.91993,-6.07965 -0.43528,-1.36859 -0.96842,-1.96939 -1.48469,-1.71975 -0.51645,0.25003 -1.01299,1.35358 -1.38119,3.14778 -0.36822,1.79413 -0.60538,4.27691 -0.64048,7.08602 -0.039,2.80907 0.13413,5.93771 0.51956,8.93232 0.38539,2.99473 0.98723,5.84566 1.75549,8.141843 0.7684,2.29618 1.70213,4.02775 2.70323,4.94759 1.00105,0.91993 2.06762,1.02088 3.08255,0.29308 1.015,-0.72797 1.97596,-2.28734 2.78181,-4.4484 0.80578,-2.160933 1.45406,-4.920333 1.88943,-7.876263 0.0789,-0.5373 0.15139,-1.08134 0.21609,-1.62864"
       style="fill:none;fill-opacity:1;fill-rule:evenodd;stroke:#000000;stroke-width:0.5;stroke-linecap:round;stroke-linejoin:round;stroke-miterlimit:4;stroke-dasharray:none;stroke-dashoffset:0;stroke-opacity:1;paint-order:stroke fill markers" />
    <path
       inkscape:export-filename="C:\Backup\Academic\Apuntes MMR\Editting\LaTex\Super Apunte F1\PNG\elasticF.png"
       inkscape:export-ydpi="300"
       inkscape:export-xdpi="300"
       inkscape:connector-curvature="0"
       id="path4646-4"
       d="m 151.32066,92.541847 h 21.09973"
       style="fill:none;stroke:#000000;stroke-width:0.5;stroke-linecap:butt;stroke-linejoin:miter;stroke-miterlimit:4;stroke-dasharray:none;stroke-opacity:1" />
    <path
       inkscape:export-ydpi="300"
       inkscape:export-xdpi="300"
       inkscape:export-filename="C:\Backup\Academic\Apuntes MMR\Editting\LaTex\Super Apunte F1\PNG\elasticF.png"
       inkscape:connector-curvature="0"
       id="path3890-5-2"
       d="m 76.708086,144.70256 c 0.23983,3.01084 0.62583,5.91037 1.12743,8.28001 0.5017,2.36958 1.11818,4.19923 1.7853,5.22776 0.66713,1.02855 1.38353,1.24828 2.0707,0.63209 0.68722,-0.61609 1.34349,-2.07109 1.89941,-4.14991 0.55591,-2.07895 1.00982,-4.77911 1.32192,-7.70707 0.31224,-2.92792 0.48123,-6.07622 0.50854,-8.98879 0.0262,-2.91268 -0.0866,-5.57957 -0.30021,-7.6171 -0.2136,-2.03742 -0.52568,-3.43572 -0.8657,-3.99663 -0.34006,-0.56055 -0.70654,-0.27737 -1.0212,0.80373 -0.31437,1.08145 -0.57576,2.96241 -0.72065,5.36674 -0.14486,2.40439 -0.17162,5.3279 -0.053,8.34536 0.11914,3.01759 0.38573,6.12065 0.7852,8.86056 0.39939,2.7398 0.93237,5.10629 1.54596,6.75969 0.61358,1.65341 1.30695,2.58468 2.00488,2.66346 0.69793,0.0785 1.3988,-0.70035 2.02657,-2.21914 0.62775,-1.51909 1.18069,-3.77798 1.60453,-6.44651 0.42402,-2.66851 0.71701,-5.74075 0.86328,-8.77094 0.14642,-3.03013 0.14485,-6.00871 0.0209,-8.50597 -0.12279,-2.49715 -0.36735,-4.50278 -0.67143,-5.72995 -0.30437,-1.22705 -0.6677,-1.66753 -1.01207,-1.26229 -0.34427,0.40529 -0.66808,1.65987 -0.89924,3.57784 -0.23144,1.91799 -0.36841,4.49736 -0.36632,7.36196 0.002,2.86447 0.14381,6.00714 0.42929,8.97254 0.28548,2.96531 0.71577,5.74348 1.25258,7.93438 0.53683,2.19081 1.17979,3.78439 1.86078,4.55387 0.68098,0.76953 1.39865,0.70838 2.07428,-0.17154 0.67566,-0.87903 1.30758,-2.5774 1.82997,-4.84537 0.52218,-2.26805 0.93357,-5.10194 1.19999,-8.08939 0.26608,-2.98741 0.38679,-6.12024 0.37052,-8.94523 -0.0157,-2.82494 -0.17108,-5.33186 -0.41407,-7.16034 -0.2435,-1.82861 -0.57507,-2.96945 -0.92171,-3.2617 -0.34687,-0.2919 -0.70657,0.26982 -1.00262,1.59985 -0.29599,1.33033 -0.52643,3.42916 -0.63306,5.98923 -0.10653,2.56012 -0.0881,5.57625 0.0781,8.61039 0.16583,3.0341 0.47966,6.07722 0.92064,8.68967 0.44083,2.61242 1.00871,4.78403 1.64599,6.20357 0.63725,1.41964 1.34302,2.07872 2.04004,1.88628 0.69704,-0.19246 1.383794,-1.24048 1.986374,-2.98804 0.60257,-1.74753 1.11914,-4.19334 1.50087,-6.98019 0.38153,-2.78685 0.62708,-5.90834 0.72685,-8.91167 0.0997,-3.00339 0.0535,-5.8791 -0.10706,-8.21237 -0.16006,-2.3333 -0.43348,-4.11416 -0.75499,-5.08856 -0.32117,-0.9744 -0.6893,-1.13484 -1.02534,-0.46287 -0.33587,0.67203 -0.63842,2.1796 -0.83847,4.29994 -0.19994,2.12028 -0.296,4.85049 -0.24928,7.79306 0.0473,2.94251 0.23668,6.08958 0.56772,8.98558 0.33114,2.89605 0.80279,5.5309 1.37188,7.52547 0.56908,1.99463 1.2348,3.33937 1.92559,3.8437 0.69085,0.50415 1.40534,0.16224 2.06546,-0.97277 0.66009,-1.13484 1.26403,-3.06318 1.75008,-5.50205 0.48597,-2.43902 0.85265,-5.38409 1.07265,-8.40713 0.21989,-3.02299 0.29283,-6.1154 0.23301,-8.8302 -0.0598,-2.71474 -0.25086,-5.04152 -0.52059,-6.64648 -0.26976,-1.60497 -0.61711,-2.47935 -0.96617,-2.50075 -0.34898,-0.0234 -0.69824,0.81489 -0.97193,2.38329 -0.27394,1.56857 -0.47021,3.86859 -0.53608,6.56386 -0.0661,2.69537 -1.7e-4,5.78011 0.21255,8.80653 0.21254,3.02653 0.57287,5.98532 1.0529,8.44949 0.4802,2.46425 1.07984,4.42364 1.73708,5.59807 0.65731,1.17438 1.3711,1.55594 2.06309,1.09389 0.69199,-0.46228 1.36055,-1.77103 1.93444,-3.73309 0.57394,-1.96213 1.0515,-4.57517 1.38942,-7.45814 0.33797,-2.8829 0.535,-6.02864 0.58884,-8.98126 0.054,-2.95269 -0.0368,-5.70244 -0.23146,-7.85314 -0.19469,-2.15076 -0.49381,-3.69269 -0.82828,-4.40658 -0.33429,-0.71418 -0.70265,-0.59283 -1.0263,0.34075 -0.32379,0.93376 -0.60083,2.682 -0.76672,4.98767 -0.16585,2.30566 -0.21886,5.16502 -0.12648,8.16195 0.0924,2.997 0.33115,6.12338 0.70596,8.92691 0.3747,2.80348 0.88618,5.27393 1.48446,7.05638 0.59826,1.78239 1.2827,2.86761 1.9792,3.1027 0.69657,0.2355 1.40364,-0.38494 2.04431,-1.76679 0.64072,-1.38155 1.21321,-3.52441 1.66046,-6.11483 0.44712,-2.59047 0.76762,-5.62306 0.9409,-8.65768 0.1732,-3.03449 0.19838,-6.06173 0.0982,-8.64453 -0.10016,-2.58286 -0.32591,-4.711 -0.61887,-6.07965 -0.29282,-1.36859 -0.65147,-1.96939 -0.99877,-1.71975 -0.34743,0.25003 -0.68147,1.35358 -0.92916,3.14778 -0.24771,1.79413 -0.40725,4.27691 -0.43086,7.08602 -0.0262,2.80907 0.0902,5.93771 0.34952,8.93232 0.25926,2.99473 0.66413,5.84566 1.18095,8.14184 0.51692,2.29619 1.14506,4.02775 1.81852,4.94759 0.67343,0.91994 1.39093,1.02089 2.0737,0.29309 0.68281,-0.72797 1.32927,-2.28735 1.87138,-4.4484 0.54206,-2.16094 0.97818,-4.92034 1.27106,-7.87627 0.0531,-0.5373 0.10182,-1.08134 0.14537,-1.62864"
       style="fill:none;fill-opacity:1;fill-rule:evenodd;stroke:#000000;stroke-width:0.5;stroke-linecap:round;stroke-linejoin:round;stroke-miterlimit:4;stroke-dasharray:none;stroke-dashoffset:0;stroke-opacity:1;paint-order:stroke fill markers" />
    <path
       inkscape:export-filename="C:\Backup\Academic\Apuntes MMR\Editting\LaTex\Super Apunte F1\PNG\elasticF.png"
       inkscape:export-ydpi="300"
       inkscape:export-xdpi="300"
       inkscape:connector-curvature="0"
       id="path4646-4-1"
       d="m 126.83098,144.70256 h 21.09973"
       style="fill:none;stroke:#000000;stroke-width:0.5;stroke-linecap:butt;stroke-linejoin:miter;stroke-miterlimit:4;stroke-dasharray:none;stroke-opacity:1" />
    <path
       inkscape:export-filename="C:\Backup\Academic\Apuntes MMR\Editting\LaTex\Super Apunte F1\PNG\elasticF.png"
       inkscape:export-ydpi="300"
       inkscape:export-xdpi="300"
       inkscape:connector-curvature="0"
       id="path4646-4-19"
       d="m 175.81236,40.381127 h 21.09973"
       style="fill:none;stroke:#000000;stroke-width:0.5;stroke-linecap:butt;stroke-linejoin:miter;stroke-miterlimit:4;stroke-dasharray:none;stroke-opacity:1" />
    <path
       inkscape:export-ydpi="300"
       inkscape:export-xdpi="300"
       inkscape:export-filename="C:\Backup\Academic\Apuntes MMR\Editting\LaTex\Super Apunte F1\PNG\elasticF.png"
       inkscape:connector-curvature="0"
       id="path3890-5-9"
       d="m 76.708216,40.381137 c 0.47341,3.01084 1.23534,5.91037 2.22547,8.28001 0.99033,2.36957 2.20724,4.19922 3.52409,5.22776 1.31687,1.02854 2.73101,1.24828 4.08743,0.63208 1.35653,-0.61609 2.65199,-2.07109 3.74931,-4.14991 1.09734,-2.07895 1.99333,-4.7791 2.6094,-7.70706 0.61635,-2.92792 0.94993,-6.07622 1.00383,-8.98879 0.0518,-2.91268 -0.17097,-5.57957 -0.59258,-7.6171 -0.42163,-2.03742 -1.03767,-3.43572 -1.70885,-3.99663 -0.67127,-0.56055 -1.39466,-0.27737 -2.01579,0.80373 -0.62055,1.08145 -1.13651,2.96241 -1.42254,5.36674 -0.28592,2.40439 -0.33875,5.3279 -0.10464,8.34536 0.23517,3.01759 0.76141,6.12065 1.54994,8.86056 0.78835,2.7398 1.84043,5.10629 3.05163,6.75969 1.21118,1.65341 2.57986,2.58467 3.95752,2.66345 1.37768,0.0785 2.76115,-0.70034 4.000334,-2.21913 1.23915,-1.51909 2.33061,-3.77798 3.16722,-6.44651 0.83701,-2.66851 1.41535,-5.74075 1.70409,-8.77094 0.28903,-3.03013 0.28591,-6.00871 0.0413,-8.50597 -0.24238,-2.49715 -0.72513,-4.50278 -1.32537,-5.72995 -0.6008,-1.22705 -1.31799,-1.66753 -1.99775,-1.26229 -0.67958,0.40529 -1.31875,1.65987 -1.77505,3.57784 -0.456864,1.91799 -0.727234,4.49736 -0.723084,7.36196 0.004,2.86447 0.28385,6.00714 0.847384,8.97254 0.56353,2.96531 1.41289,5.74348 2.47253,7.93437 1.05966,2.19081 2.32884,3.78439 3.67307,4.55388 1.3442,0.76953 2.76084,0.70837 4.0945,-0.17154 1.33371,-0.87904 2.5811,-2.5774 3.61225,-4.84537 1.03075,-2.26805 1.84282,-5.10194 2.36873,-8.08939 0.52522,-2.98741 0.76349,-6.12024 0.73139,-8.94523 -0.0311,-2.82494 -0.33772,-5.33186 -0.81738,-7.16034 -0.48065,-1.82861 -1.13516,-2.96945 -1.81938,-3.2617 -0.68471,-0.2919 -1.39476,0.26982 -1.97912,1.59985 -0.58429,1.33033 -1.03915,3.42916 -1.24965,5.98923 -0.21027,2.56012 -0.17399,5.57625 0.15431,8.61039 0.32732,3.0341 0.94682,6.07722 1.81728,8.68967 0.87019,2.61241 1.99115,4.78403 3.24908,6.20356 1.2579,1.41965 2.65104,2.07872 4.02692,1.88629 1.37594,-0.19247 2.73152,-1.24048 3.92098,-2.98804 1.18944,-1.74754 2.20912,-4.19334 2.96263,-6.98019 0.75312,-2.78685 1.23782,-5.90834 1.43475,-8.91167 0.19676,-3.00339 0.10569,-5.8791 -0.21132,-8.21237 -0.31596,-2.3333 -0.85567,-4.11416 -1.49029,-5.08856 -0.63397,-0.9744 -1.36066,-1.13484 -2.02396,-0.46287 -0.66301,0.67203 -1.26021,2.1796 -1.65512,4.29994 -0.39465,2.12028 -0.58424,4.85049 -0.49204,7.79306 0.0932,2.94251 0.4672,6.08958 1.12064,8.98558 0.65366,2.89605 1.58466,5.5309 2.70801,7.52547 1.12334,1.99462 2.43741,3.33936 3.80099,3.8437 1.3637,0.50414 2.77408,0.16223 4.07709,-0.97277 1.30297,-1.13485 2.49512,-3.06318 3.45457,-5.50206 0.95928,-2.43901 1.68308,-5.38408 2.11734,-8.40712 0.43406,-3.02299 0.57805,-6.1154 0.45997,-8.8302 -0.11805,-2.71474 -0.49519,-5.04152 -1.02765,-6.64648 -0.53247,-1.60497 -1.21813,-2.47935 -1.90713,-2.50075 -0.68886,-0.0234 -1.37829,0.81489 -1.91853,2.38329 -0.54073,1.56857 -0.92819,3.86859 -1.05821,6.56386 -0.13053,2.69537 -3.4e-4,5.78011 0.41955,8.80653 0.41956,3.02653 1.13083,5.98532 2.07838,8.44949 0.94788,2.46424 2.13154,4.42364 3.42888,5.59807 1.2975,1.17437 2.70646,1.55594 4.07243,1.09389 1.36596,-0.46228 2.68563,-1.77104 3.81848,-3.7331 1.13292,-1.96212 2.0756,-4.57516 2.74263,-7.45813 0.66713,-2.8829 1.05603,-6.02864 1.16233,-8.98126 0.10677,-2.95269 -0.0727,-5.70244 -0.45688,-7.85314 -0.3843,-2.15076 -0.97476,-3.69269 -1.63498,-4.40658 -0.65987,-0.71418 -1.38697,-0.59283 -2.02584,0.34075 -0.63916,0.93376 -1.18603,2.682 -1.51347,4.98767 -0.32736,2.30566 -0.43203,5.16502 -0.24967,8.16195 0.18236,2.997 0.65367,6.12338 1.39351,8.92691 0.73964,2.80348 1.74926,5.27393 2.93025,7.05638 1.18093,1.78238 2.53197,2.86761 3.90684,3.1027 1.37497,0.2355 2.77067,-0.38494 4.03532,-1.76679 1.26476,-1.38155 2.39483,-3.52441 3.27766,-6.11483 0.88259,-2.59047 1.51523,-5.62306 1.85729,-8.65768 0.34186,-3.03449 0.3916,-6.06173 0.19368,-8.64453 -0.19779,-2.58286 -0.64331,-4.711 -1.22158,-6.07965 -0.57803,-1.36859 -1.28598,-1.96939 -1.97154,-1.71975 -0.68581,0.25003 -1.34518,1.35358 -1.83411,3.14778 -0.48895,1.79413 -0.80389,4.27691 -0.8505,7.08602 -0.0518,2.80907 0.17813,5.93771 0.68993,8.93232 0.51176,2.99473 1.31096,5.84566 2.33115,8.14184 1.02035,2.29618 2.26026,4.02775 3.58965,4.94759 1.32929,0.91993 2.7456,1.02088 4.09334,0.29308 1.34783,-0.72797 2.62392,-2.28734 3.69401,-4.4484 1.07,-2.16093 1.93086,-4.92033 2.50898,-7.87626 0.10478,-0.5373 0.20103,-1.08134 0.28697,-1.62864"
       style="fill:none;fill-opacity:1;fill-rule:evenodd;stroke:#000000;stroke-width:0.5;stroke-linecap:round;stroke-linejoin:round;stroke-miterlimit:4;stroke-dasharray:none;stroke-dashoffset:0;stroke-opacity:1;paint-order:stroke fill markers" />
    <flowRoot
       xml:space="preserve"
       id="flowRoot7128-4"
       style="font-style:normal;font-variant:normal;font-weight:normal;font-stretch:normal;font-size:26.6667px;line-height:1.25;font-family:'Math Symbols';-inkscape-font-specification:'Math Symbols';letter-spacing:0px;word-spacing:0px;fill:#000000;fill-opacity:1;stroke:none"
       transform="matrix(0.26458333,0,0,0.26458333,163.4425,-61.576015)"
       inkscape:export-filename="C:\Users\mrmal\Desktop\RFB\Apunte IAP\PNG\sin1.png"
       inkscape:export-xdpi="300"
       inkscape:export-ydpi="300"><flowRegion
         id="flowRegion7124-1"><rect
           id="rect7122-8"
           width="405.42691"
           height="110.41418"
           x="150.68999"
           y="314.73935" /></flowRegion><flowPara
         id="flowPara7126-3"
         style="font-style:normal;font-variant:normal;font-weight:normal;font-stretch:normal;font-size:32px;font-family:'CMU Serif';-inkscape-font-specification:'CMU Serif'">$\sub{\vec{F}}{ela}$</flowPara></flowRoot>
    <flowRoot
       xml:space="preserve"
       id="flowRoot7128-4-8"
       style="font-style:normal;font-variant:normal;font-weight:normal;font-stretch:normal;font-size:26.6667px;line-height:1.25;font-family:'Math Symbols';-inkscape-font-specification:'Math Symbols';letter-spacing:0px;word-spacing:0px;fill:#000000;fill-opacity:1;stroke:none"
       transform="matrix(0.26458333,0,0,0.26458333,114.2438,41.762627)"
       inkscape:export-filename="C:\Users\mrmal\Desktop\RFB\Apunte IAP\PNG\sin1.png"
       inkscape:export-xdpi="300"
       inkscape:export-ydpi="300"><flowRegion
         id="flowRegion7124-1-2"><rect
           id="rect7122-8-5"
           width="405.42691"
           height="110.41418"
           x="150.68999"
           y="314.73935" /></flowRegion><flowPara
         id="flowPara7126-3-9"
         style="font-style:normal;font-variant:normal;font-weight:normal;font-stretch:normal;font-size:32px;font-family:'CMU Serif';-inkscape-font-specification:'CMU Serif'">$\sub{\vec{F}}{ela}$</flowPara></flowRoot>
    <flowRoot
       xml:space="preserve"
       id="flowRoot7128-4-4"
       style="font-style:normal;font-variant:normal;font-weight:normal;font-stretch:normal;font-size:26.6667px;line-height:1.25;font-family:'Math Symbols';-inkscape-font-specification:'Math Symbols';letter-spacing:0px;word-spacing:0px;fill:#000000;fill-opacity:1;stroke:none"
       transform="matrix(0.26458333,0,0,0.26458333,115.58969,85.898943)"
       inkscape:export-filename="C:\Users\mrmal\Desktop\RFB\Apunte IAP\PNG\sin1.png"
       inkscape:export-xdpi="300"
       inkscape:export-ydpi="300"><flowRegion
         id="flowRegion7124-1-29"><rect
           id="rect7122-8-0"
           width="405.42691"
           height="110.41418"
           x="150.68999"
           y="314.73935" /></flowRegion><flowPara
         id="flowPara7126-3-8"
         style="font-style:normal;font-variant:normal;font-weight:normal;font-stretch:normal;font-size:32px;font-family:'CMU Serif';-inkscape-font-specification:'CMU Serif'">$\Delta l$</flowPara></flowRoot>
    <flowRoot
       xml:space="preserve"
       id="flowRoot4977"
       style="font-style:normal;font-variant:normal;font-weight:normal;font-stretch:normal;font-size:26.6667px;line-height:1.25;font-family:'Math Symbols';-inkscape-font-specification:'Math Symbols';letter-spacing:0px;word-spacing:0px;fill:#000000;fill-opacity:1;stroke:none"
       transform="matrix(0.26458333,0,0,0.26458333,140.07591,85.898943)"
       inkscape:export-filename="C:\Users\mrmal\Desktop\RFB\Apunte IAP\PNG\sin1.png"
       inkscape:export-xdpi="300"
       inkscape:export-ydpi="300"><flowRegion
         id="flowRegion4973"><rect
           id="rect4971"
           width="405.42691"
           height="110.41418"
           x="150.68999"
           y="314.73935" /></flowRegion><flowPara
         id="flowPara4975"
         style="font-style:normal;font-variant:normal;font-weight:normal;font-stretch:normal;font-size:32px;font-family:'CMU Serif';-inkscape-font-specification:'CMU Serif'">$\Delta l$</flowPara></flowRoot>
    <flowRoot
       xml:space="preserve"
       id="flowRoot4985"
       style="font-style:normal;font-variant:normal;font-weight:normal;font-stretch:normal;font-size:26.6667px;line-height:1.25;font-family:'Math Symbols';-inkscape-font-specification:'Math Symbols';letter-spacing:0px;word-spacing:0px;fill:#000000;fill-opacity:1;stroke:none"
       transform="matrix(0.26458333,0,0,0.26458333,155.9451,112.47783)"
       inkscape:export-filename="C:\Users\mrmal\Desktop\RFB\Apunte IAP\PNG\sin1.png"
       inkscape:export-xdpi="300"
       inkscape:export-ydpi="300"><flowRegion
         id="flowRegion4981"><rect
           id="rect4979"
           width="405.42691"
           height="110.41418"
           x="150.68999"
           y="314.73935" /></flowRegion><flowPara
         id="flowPara4983"
         style="font-style:normal;font-variant:normal;font-weight:normal;font-stretch:normal;font-size:32px;font-family:'CMU Serif';-inkscape-font-specification:'CMU Serif'">$\sub{l}{max}$</flowPara></flowRoot>
    <flowRoot
       xml:space="preserve"
       id="flowRoot6483"
       style="font-style:normal;font-variant:normal;font-weight:normal;font-stretch:normal;font-size:26.6667px;line-height:1.25;font-family:'Math Symbols';-inkscape-font-specification:'Math Symbols';letter-spacing:0px;word-spacing:0px;fill:#000000;fill-opacity:1;stroke:none"
       transform="matrix(0.26458333,0,0,0.26458333,103.02841,112.47783)"
       inkscape:export-filename="C:\Users\mrmal\Desktop\RFB\Apunte IAP\PNG\sin1.png"
       inkscape:export-xdpi="300"
       inkscape:export-ydpi="300"><flowRegion
         id="flowRegion6479"><rect
           id="rect6477"
           width="405.42691"
           height="110.41418"
           x="150.68999"
           y="314.73935" /></flowRegion><flowPara
         id="flowPara6481"
         style="font-style:normal;font-variant:normal;font-weight:normal;font-stretch:normal;font-size:32px;font-family:'CMU Serif';-inkscape-font-specification:'CMU Serif'">$\sub{l}{min}$</flowPara></flowRoot>
    <flowRoot
       xml:space="preserve"
       id="flowRoot6593"
       style="font-style:normal;font-variant:normal;font-weight:normal;font-stretch:normal;font-size:26.6667px;line-height:1.25;font-family:'Math Symbols';-inkscape-font-specification:'Math Symbols';letter-spacing:0px;word-spacing:0px;fill:#000000;fill-opacity:1;stroke:none"
       transform="matrix(0.26458333,0,0,0.26458333,129.48675,112.47783)"
       inkscape:export-filename="C:\Users\mrmal\Desktop\RFB\Apunte IAP\PNG\sin1.png"
       inkscape:export-xdpi="300"
       inkscape:export-ydpi="300"><flowRegion
         id="flowRegion6589"><rect
           id="rect6587"
           width="405.42691"
           height="110.41418"
           x="150.68999"
           y="314.73935" /></flowRegion><flowPara
         id="flowPara6591"
         style="font-style:normal;font-variant:normal;font-weight:normal;font-stretch:normal;font-size:32px;font-family:'CMU Serif';-inkscape-font-specification:'CMU Serif'">$l_0$</flowPara></flowRoot>
  </g>
</svg>
