<?xml version="1.0" encoding="UTF-8" standalone="no"?>
<!-- Created with Inkscape (http://www.inkscape.org/) -->

<svg
   width="210mm"
   height="297mm"
   viewBox="0 0 210 297"
   version="1.1"
   id="svg1994"
   inkscape:version="1.1 (c68e22c387, 2021-05-23)"
   sodipodi:docname="dinamica-rozamiento-6.svg"
   xmlns:inkscape="http://www.inkscape.org/namespaces/inkscape"
   xmlns:sodipodi="http://sodipodi.sourceforge.net/DTD/sodipodi-0.dtd"
   xmlns="http://www.w3.org/2000/svg"
   xmlns:svg="http://www.w3.org/2000/svg">
  <sodipodi:namedview
     id="namedview1996"
     pagecolor="#ffffff"
     bordercolor="#666666"
     borderopacity="1.0"
     inkscape:pageshadow="2"
     inkscape:pageopacity="0.0"
     inkscape:pagecheckerboard="0"
     inkscape:document-units="mm"
     showgrid="false"
     inkscape:zoom="0.67081229"
     inkscape:cx="485.23261"
     inkscape:cy="555.29692"
     inkscape:window-width="1920"
     inkscape:window-height="1001"
     inkscape:window-x="-9"
     inkscape:window-y="-9"
     inkscape:window-maximized="1"
     inkscape:current-layer="layer1" />
  <defs
     id="defs1991" />
  <g
     inkscape:label="Layer 1"
     inkscape:groupmode="layer"
     id="layer1">
    <path
       inkscape:connector-curvature="0"
       id="path17800"
       d="m 182.59923,146.14791 c -3.38685,0.16939 -6.64738,0.33876 -9.79147,0.50814 -3.14409,0.16938 -6.17105,0.33877 -9.09001,0.50815 -2.91897,0.16936 -5.72931,0.33875 -8.43949,0.50814 -2.71019,0.16937 -5.31963,0.33874 -7.8362,0.50813 -2.51656,0.16937 -4.9397,0.33875 -7.27671,0.50815 -2.337,0.16936 -4.58736,0.33875 -6.75784,0.50813 -2.17048,0.16938 -4.26061,0.33876 -6.27665,0.50814 -2.01605,0.16937 -3.95757,0.33875 -5.83038,0.50814 -1.87283,0.16938 -3.67655,0.33874 -5.41656,0.50813 -1.74,0.16938 -3.4159,0.33877 -5.03273,0.50814 -1.61682,0.16937 -3.17419,0.33876 -4.67679,0.50814 -1.50259,0.16938 -2.95005,0.33875 -4.3467,0.50814 -1.39664,0.16938 -2.74217,0.33876 -4.04056,0.50814 -1.2984,0.16938 -2.54938,0.33876 -3.75665,0.50813 -1.20729,0.16938 -2.3706,0.33876 -3.49339,0.50814 -1.12277,0.16937 -2.20477,0.33876 -3.24921,0.50814 -1.04441,0.16938 -2.05101,0.33876 -3.02275,0.50814 -0.97174,0.16938 -1.90841,0.33875 -2.81275,0.50814 -0.90435,0.16938 -1.77616,0.33875 -2.618,0.50812 -0.84184,0.1694 -1.65351,0.33878 -2.43738,0.50815 -0.78387,0.16938 -1.53977,0.33876 -2.26989,0.50814 -0.73011,0.16938 -1.43428,0.33876 -2.11454,0.50814 -0.68026,0.16938 -1.33646,0.33876 -1.97048,0.50814 -0.63402,0.16938 -1.24573,0.33876 -1.83687,0.50815 -0.59114,0.16937 -1.1616,0.33875 -1.71298,0.50814 -0.55138,0.16936 -1.08357,0.33875 -1.59808,0.50813 -0.51449,0.16937 -1.01121,0.33875 -1.4915,0.50813 -0.4803,0.16937 -0.94411,0.33876 -1.39269,0.50814 -0.44858,0.16938 -0.88186,0.33875 -1.30102,0.50813 -0.41918,0.16938 -0.82416,0.33877 -1.21604,0.50815 -0.39189,0.16937 -0.77062,0.33875 -1.13723,0.50813 -0.36659,0.16939 -0.72097,0.33876 -1.0641,0.50815 -0.34314,0.16938 -0.67495,0.33876 -0.99632,0.50813 -0.32137,0.16938 -0.63226,0.33876 -0.93346,0.50814 -0.30118,0.16938 -0.59265,0.33876 -0.87514,0.50813 -0.28248,0.16937 -0.55592,0.33877 -0.82107,0.50815 -0.26512,0.16936 -0.52187,0.33875 -0.7709,0.50813 -0.24904,0.16938 -0.49031,0.33876 -0.72442,0.50814 -0.23411,0.16938 -0.46102,0.33876 -0.68129,0.50813 -0.22026,0.16939 -0.43386,0.33878 -0.64129,0.50816 -0.20743,0.16938 -0.40866,0.33875 -0.60418,0.50813 -0.19552,0.16937 -0.38531,0.33877 -0.56979,0.50813 -0.18449,0.16938 -0.36364,0.33877 -0.5379,0.50815 -0.17423,0.16937 -0.34355,0.33875 -0.50829,0.50813 -0.16476,0.16938 -0.32493,0.33876 -0.48086,0.50814 -0.15595,0.16937 -0.30765,0.33876 -0.45543,0.50814 -0.14777,0.16938 -0.29161,0.33876 -0.43182,0.50813 -0.1402,0.16938 -0.27675,0.33877 -0.40992,0.50814 -0.13319,0.16938 -0.26298,0.33877 -0.38965,0.50814 -0.12666,0.16938 -0.25017,0.33876 -0.37081,0.50815 -0.12064,0.16938 -0.23833,0.33876 -0.35336,0.50813 -0.11502,0.16939 -0.22734,0.33877 -0.33716,0.50813 -0.10984,0.16939 -0.21716,0.33877 -0.32217,0.50815 -0.10501,0.16937 -0.20769,0.33876 -0.30822,0.50813 -0.10054,0.16938 -0.19893,0.33876 -0.29533,0.50814 -0.0964,0.16937 -0.19079,0.33877 -0.28334,0.50815 -0.0926,0.16938 -0.18325,0.33874 -0.27224,0.50813 -0.089,0.16938 -0.17626,0.33876 -0.26194,0.50815 -0.0857,0.16936 -0.16978,0.33874 -0.25239,0.50813 -0.0826,0.16938 -0.16375,0.33876 -0.24353,0.50813 -0.0798,0.16939 -0.15818,0.33877 -0.23532,0.50814 -0.0772,0.16939 -0.15301,0.33877 -0.2277,0.50814 -0.0747,0.16939 -0.14822,0.33877 -0.22063,0.50813 -0.0724,0.16939 -0.14377,0.33877 -0.21408,0.50815 -0.0703,0.16937 -0.13963,0.33875 -0.20802,0.50813 -0.0684,0.16939 -0.13578,0.33876 -0.20237,0.50815 -0.0666,0.16938 -0.13225,0.33876 -0.19713,0.50813 -0.0649,0.16938 -0.12896,0.33876 -0.19231,0.50814 -0.0634,0.16939 -0.1259,0.33876 -0.1878,0.50814 -0.0619,0.16939 -0.12305,0.33876 -0.18363,0.50814 -0.0606,0.16938 -0.12044,0.33876 -0.17976,0.50814 l -3.75415,12.24627"
       style="fill:none;fill-opacity:0.196078;fill-rule:evenodd;stroke:#000000;stroke-width:0.5;stroke-linecap:round;stroke-linejoin:round;stroke-miterlimit:4;stroke-dasharray:none;stroke-dashoffset:0;stroke-opacity:1;paint-order:normal" />
    <path
       inkscape:connector-curvature="0"
       id="path17783"
       d="m 40.91062,101.79741 v 93.40518"
       style="fill:none;stroke:#000000;stroke-width:0.3;stroke-linecap:butt;stroke-linejoin:miter;stroke-miterlimit:4;stroke-dasharray:none;stroke-opacity:1" />
    <path
       inkscape:connector-curvature="0"
       id="path17785"
       d="M 27.42549,182.22508 H 186.50045"
       style="fill:none;stroke:#000000;stroke-width:0.3;stroke-linecap:round;stroke-linejoin:round;stroke-miterlimit:4;stroke-dasharray:none;stroke-opacity:1" />
    <path
       inkscape:connector-curvature="0"
       id="path17802"
       d="M 40.91062,140.90658 H 183.21418"
       style="fill:none;stroke:#000000;stroke-width:0.5;stroke-linecap:round;stroke-linejoin:round;stroke-miterlimit:4;stroke-dasharray:3, 3;stroke-dashoffset:0;stroke-opacity:1" />
    <flowRoot
       xml:space="preserve"
       id="flowRoot2908"
       style="font-style:normal;font-variant:normal;font-weight:normal;font-stretch:normal;font-size:26.6667px;line-height:1.25;font-family:'Math Symbols';-inkscape-font-specification:'Math Symbols';letter-spacing:0px;word-spacing:0px;fill:#000000;fill-opacity:1;stroke:none"
       transform="matrix(0.26458333,0,0,0.26458333,-17.478647,17.111231)"
       inkscape:export-filename="C:\Users\mrmal\Desktop\RFB\Apunte IAP\PNG\sin1.png"
       inkscape:export-xdpi="300"
       inkscape:export-ydpi="300"><flowRegion
         id="flowRegion2904"><rect
           id="rect2902"
           width="405.42691"
           height="110.41418"
           x="150.68999"
           y="314.73935" /></flowRegion><flowPara
         id="flowPara2906"
         style="font-style:normal;font-variant:normal;font-weight:normal;font-stretch:normal;font-size:32px;font-family:'CMU Serif';-inkscape-font-specification:'CMU Serif'">$\dot{x}(t)$</flowPara></flowRoot>
    <flowRoot
       xml:space="preserve"
       id="flowRoot2908-0"
       style="font-style:normal;font-variant:normal;font-weight:normal;font-stretch:normal;font-size:26.6667px;line-height:1.25;font-family:'Math Symbols';-inkscape-font-specification:'Math Symbols';letter-spacing:0px;word-spacing:0px;fill:#000000;fill-opacity:1;stroke:none"
       transform="matrix(0.26458333,0,0,0.26458333,133.69907,88.140286)"
       inkscape:export-filename="C:\Users\mrmal\Desktop\RFB\Apunte IAP\PNG\sin1.png"
       inkscape:export-xdpi="300"
       inkscape:export-ydpi="300"><flowRegion
         id="flowRegion2904-2"><rect
           id="rect2902-2"
           width="405.42691"
           height="110.41418"
           x="150.68999"
           y="314.73935" /></flowRegion><flowPara
         id="flowPara2906-3"
         style="font-style:normal;font-variant:normal;font-weight:normal;font-stretch:normal;font-size:32px;font-family:'CMU Serif';-inkscape-font-specification:'CMU Serif'">$t$</flowPara></flowRoot>
    <flowRoot
       xml:space="preserve"
       id="flowRoot2908-0-8"
       style="font-style:normal;font-variant:normal;font-weight:normal;font-stretch:normal;font-size:26.6667px;line-height:1.25;font-family:'Math Symbols';-inkscape-font-specification:'Math Symbols';letter-spacing:0px;word-spacing:0px;fill:#000000;fill-opacity:1;stroke:none"
       transform="matrix(0.26458333,0,0,0.26458333,-23.061073,51.856311)"
       inkscape:export-filename="C:\Users\mrmal\Desktop\RFB\Apunte IAP\PNG\sin1.png"
       inkscape:export-xdpi="300"
       inkscape:export-ydpi="300"><flowRegion
         id="flowRegion2904-2-2"><rect
           id="rect2902-2-8"
           width="405.42691"
           height="110.41418"
           x="150.68999"
           y="314.73935"
           style="stroke-width:1" /></flowRegion><flowPara
         id="flowPara2906-3-4"
         style="font-style:normal;font-variant:normal;font-weight:normal;font-stretch:normal;font-size:32px;font-family:'CMU Serif';-inkscape-font-specification:'CMU Serif'">$\frac{m \, g}{b}$</flowPara></flowRoot>
  </g>
</svg>
