<?xml version="1.0" encoding="UTF-8" standalone="no"?>
<!-- Created with Inkscape (http://www.inkscape.org/) -->

<svg
   width="210mm"
   height="297mm"
   viewBox="0 0 210 297"
   version="1.1"
   id="svg7900"
   inkscape:version="1.1 (c68e22c387, 2021-05-23)"
   sodipodi:docname="osc-4.svg"
   xmlns:inkscape="http://www.inkscape.org/namespaces/inkscape"
   xmlns:sodipodi="http://sodipodi.sourceforge.net/DTD/sodipodi-0.dtd"
   xmlns="http://www.w3.org/2000/svg"
   xmlns:svg="http://www.w3.org/2000/svg">
  <sodipodi:namedview
     id="namedview7902"
     pagecolor="#ffffff"
     bordercolor="#666666"
     borderopacity="1.0"
     inkscape:pageshadow="2"
     inkscape:pageopacity="0.0"
     inkscape:pagecheckerboard="0"
     inkscape:document-units="mm"
     showgrid="false"
     inkscape:zoom="0.67081229"
     inkscape:cx="397.27954"
     inkscape:cy="561.25984"
     inkscape:window-width="1920"
     inkscape:window-height="1001"
     inkscape:window-x="-9"
     inkscape:window-y="-9"
     inkscape:window-maximized="1"
     inkscape:current-layer="layer1" />
  <defs
     id="defs7897" />
  <g
     inkscape:label="Layer 1"
     inkscape:groupmode="layer"
     id="layer1">
    <path
       id="path52563"
       title="t 1.5*exp(-t)*cos(10*t)"
       d="m 13.886681,89.659579 c 0.315961,1.728539 0.631875,4.810986 0.947845,8.942966 0.315942,4.131885 0.631884,9.312475 0.947826,15.111515 0.31597,5.79905 0.631912,12.21553 0.947854,18.76879 0.315942,6.55326 0.631884,13.23975 0.947844,19.59762 0.315942,6.35796 0.631884,12.38189 0.947826,17.6905 0.31597,5.30868 0.631884,9.89552 0.947854,13.50615 0.315942,3.61075 0.631884,6.23856 0.947826,7.78159 0.315942,1.54292 0.631884,1.9953 0.947845,1.40999 0.315923,-0.58525 0.631884,-2.2123 0.947826,-4.69136 0.315942,-2.47912 0.631884,-5.81239 0.947854,-9.70934 0.315942,-3.89683 0.631884,-8.35732 0.947826,-13.03696 0.315942,-4.67973 0.631884,-9.57653 0.947845,-14.34316 0.315923,-4.76663 0.631884,-9.39946 0.947826,-13.59583 0.315942,-4.19637 0.631884,-7.9518 0.947853,-11.04643 0.315942,-3.09455 0.631884,-5.52345 0.947826,-7.17368 0.315942,-1.65022 0.631884,-2.5173 0.947826,-2.60271 0.315942,-0.0856 0.631903,0.61437 0.947845,1.99188 0.315942,1.37751 0.631884,3.4348 0.947854,5.98085 0.315914,2.54605 0.631884,5.58142 0.947826,8.86354 0.315942,3.28212 0.631884,6.80996 0.947826,10.32655 0.315942,3.51659 0.631903,7.01959 0.947845,10.27352 0.315942,3.25383 0.631911,6.25543 0.947853,8.82139 0.315942,2.56596 0.631884,4.69266 0.947826,6.27022 0.315943,1.57755 0.631885,2.60252 0.947827,3.04811 0.31596,0.44559 0.631902,0.30881 0.947844,-0.35627 0.315942,-0.66507 0.631912,-1.8605 0.947826,-3.46476 0.31597,-1.60435 0.631912,-3.61828 0.947854,-5.8745 0.315942,-2.25631 0.631884,-4.75445 0.947826,-7.30719 0.315961,-2.55285 0.631903,-5.15882 0.947845,-7.63806 0.315942,-2.47924 0.631884,-4.82953 0.947826,-6.90199 0.31597,-2.07245 0.631912,-3.86457 0.947854,-5.27688 0.315942,-1.41231 0.631884,-2.44212 0.947826,-3.04932 0.31596,-0.60711 0.631884,-0.78939 0.947844,-0.56701 0.315942,0.22237 0.631884,0.85107 0.947826,1.8124 0.31597,0.96133 0.631912,2.25622 0.947854,3.77162 0.315942,1.51531 0.631884,3.25123 0.947826,5.07349 0.315942,1.82226 0.631884,3.73022 0.947845,5.5883 0.315942,1.85799 0.631884,3.6649 0.947826,5.30238 0.315942,1.63757 0.631884,3.10403 0.947854,4.31351 0.315942,1.20947 0.631884,2.16001 0.947854,2.80722 0.315914,0.64731 0.631884,0.98961 0.947826,1.02711 0.315942,0.0372 0.631874,-0.23093 0.947816,-0.76398 0.315942,-0.53305 0.631912,-1.33146 0.947826,-2.32089 0.31597,-0.98933 0.631912,-2.17005 0.947854,-3.44764 0.315942,-1.27749 0.631912,-2.65156 0.947854,-4.02191 0.315942,-1.37035 0.631884,-2.73604 0.947826,-4.00535 0.315933,-1.2693 0.631903,-2.44081 0.947817,-3.44299 0.31597,-1.00226 0.631912,-1.8338 0.947854,-2.45142 0.315942,-0.61772 0.631912,-1.02032 0.947854,-1.1971 0.315942,-0.17678 0.631884,-0.12673 0.947826,0.12961 0.315942,0.25624 0.631884,0.71941 0.947816,1.34225 0.31597,0.62293 0.631912,1.40589 0.947854,2.28366 0.315942,0.87787 0.631912,1.85046 0.947826,2.84491 0.31597,0.99445 0.631912,2.01012 0.947854,2.97684 0.315942,0.96673 0.631884,1.88377 0.947826,2.69278 0.315961,0.80911 0.631903,1.50926 0.947845,2.06166 0.315942,0.55241 0.631912,0.95594 0.947826,1.19487 0.31597,0.23885 0.631912,0.31226 0.947854,0.22777 0.315942,-0.0847 0.631884,-0.32732 0.947844,-0.70006 0.315942,-0.37273 0.631884,-0.87582 0.947826,-1.46506 0.31597,-0.58925 0.631884,-1.26484 0.947854,-1.97439 0.315942,-0.70965 0.631884,-1.45297 0.947826,-2.17723 0.315942,-0.72425 0.631884,-1.42896 0.947845,-2.06799 0.315942,-0.63902 0.631884,-1.21161 0.947826,-1.68437 0.31597,-0.47266 0.631884,-0.84465 0.947854,-1.09847 0.315942,-0.25392 0.631884,-0.38902 0.947826,-0.4053 0.315942,-0.0158 0.631884,0.0865 0.947844,0.29299 0.315924,0.20628 0.631884,0.51602 0.947826,0.90057 0.315942,0.38446 0.631884,0.84372 0.947854,1.34104 0.315942,0.49732 0.631884,1.03242 0.947826,1.56639 0.315942,0.53398 0.631884,1.06647 0.947845,1.56156 0.315923,0.49508 0.631884,0.95239 0.947826,1.34383 0.315942,0.39143 0.631884,0.71653 0.947854,0.95844 0.315942,0.24182 0.631884,0.4 0.947826,0.47006 0.315942,0.0698 0.631884,0.0521 0.947826,-0.0465 0.315942,-0.0987 0.631902,-0.2782 0.947844,-0.52002 0.315942,-0.24182 0.631912,-0.54617 0.947854,-0.88773 0.315942,-0.34147 0.631884,-0.72016 0.947826,-1.1076 0.315942,-0.38734 0.631884,-0.78315 0.947826,-1.16016 0.315961,-0.37692 0.631903,-0.73467 0.947845,-1.05056 0.315942,-0.31588 0.631912,-0.58943 0.947826,-0.80548 0.31597,-0.21604 0.631912,-0.37413 0.947854,-0.46819 0.315942,-0.094 0.631884,-0.12347 0.947826,-0.0912 0.31596,0.0316 0.631902,0.12589 0.947844,0.27048 0.315942,0.1445 0.631912,0.33989 0.947826,0.56906 0.31597,0.22916 0.631912,0.49201 0.947854,0.76835 0.315942,0.27634 0.631884,0.5659 0.947826,0.84828 0.315961,0.2823 0.631884,0.55715 0.947845,0.80651 0.315942,0.24935 0.631884,0.47294 0.947826,0.65763 0.31597,0.18478 0.631912,0.33031 0.947854,0.42986 0.315942,0.0996 0.631884,0.15287 0.947827,0.15994 0.31597,0.009 0.63188,-0.0326 0.94784,-0.11239 0.31595,-0.08 0.63189,-0.19995 0.94783,-0.34938 0.31597,-0.14943 0.63191,-0.32807 0.94785,-0.52161 0.31595,-0.19362 0.63189,-0.40204 0.94786,-0.61008 0.31591,-0.20805 0.63188,-0.41563 0.94782,-0.60879 0.31595,-0.19316 0.63188,-0.37162 0.94782,-0.52449 0.31594,-0.15287 0.63191,-0.27996 0.94785,-0.37468 0.31595,-0.0947 0.63189,-0.15688 0.94786,-0.1846 0.31591,-0.0279 0.63188,-0.0214 0.94782,0.0168 0.31595,0.0381 0.63189,0.10746 0.94783,0.20144 0.31593,0.0939 0.6319,0.21214 0.94784,0.34509 0.31595,0.13287 0.63189,0.28025 0.94783,0.43117 0.31594,0.15092 0.63191,0.30518 0.94785,0.45219 0.31595,0.14701 0.63189,0.28648 0.94783,0.40986 0.31594,0.12328 0.6319,0.23019 0.94782,0.31467 0.31597,0.0847 0.63191,0.14645 0.94785,0.18339 0.31594,0.0372 0.63191,0.0493 0.94785,0.0363 0.31595,-0.0121 0.63189,-0.0484 0.94783,-0.10439 0.31594,-0.0558 0.63188,-0.13194 0.94783,-0.22108 0.31596,-0.0893 0.6319,-0.19139 0.94784,-0.29904 0.31594,-0.10756 0.63191,-0.22042 0.94783,-0.3304 0.31597,-0.11007 0.63191,-0.21725 0.94785,-0.31458 0.31596,-0.0973 0.63189,-0.1846 0.94785,-0.2568 0.31594,-0.0726 0.63188,-0.12914 0.94782,-0.16822 0.31597,-0.0391 0.63191,-0.0605 0.94786,-0.0633 0.31594,0 0.63188,0.0121 0.94782,0.0428 0.31594,0.0307 0.63189,0.0772 0.94785,0.13556 0.31594,0.0577 0.63188,0.12757 0.94782,0.20293 0.31597,0.0754 0.63189,0.1565 0.94786,0.23754 0.31594,0.081 0.63188,0.16208 0.94782,0.23736 0.31594,0.0754 0.63189,0.14505 0.94785,0.20469 0.31594,0.0596 0.63188,0.10942 0.94782,0.14655 0.31597,0.0372 0.63189,0.0614 0.94786,0.0726 0.31594,0.0112 0.63188,0.009 0.94782,-0.009 0.31595,-0.0149 0.63189,-0.0419 0.94785,-0.0782 0.31592,-0.0363 0.63188,-0.0828 0.94782,-0.13417 0.31595,-0.0521 0.63189,-0.10914 0.94786,-0.16785 0.31594,-0.0586 0.63188,-0.11891 0.94782,-0.17623 0.31595,-0.0577 0.63189,-0.11174 0.94783,-0.15994 0.31596,-0.0484 0.6319,-0.0902 0.94784,-0.12291 0.31595,-0.0326 0.63192,-0.0577 0.94786,-0.0716 0.31594,-0.0149 0.63188,-0.0195 0.94782,-0.0149 0.31595,0.009 0.63191,0.0186 0.94783,0.04 0.31596,0.0214 0.6319,0.0512 0.94784,0.0856 0.31595,0.0344 0.63192,0.0744 0.94786,0.1163 0.31594,0.0419 0.63188,0.0856 0.94782,0.12878 0.31595,0.0428 0.63189,0.0847 0.94783,0.12272 0.31596,0.0382 0.6319,0.0717 0.94785,0.1003 0.31594,0.0279 0.63191,0.0503 0.94782,0.0661 0.31597,0.0149 0.63191,0.0233 0.94786,0.0251 0.31594,0 0.63188,-0.009 0.94782,-0.0168 0.31596,-0.0121 0.6319,-0.0298 0.94785,-0.0521 0.31594,-0.0223 0.63191,-0.0493 0.94782,-0.0791 0.31597,-0.0298 0.63191,-0.0605 0.94786,-0.0931 0.31594,-0.0316 0.63188,-0.0633 0.94782,-0.0921 0.31597,-0.0298 0.63189,-0.0568 0.94785,-0.08 0.31594,-0.0233 0.63188,-0.0428 0.94782,-0.0577 0.31597,-0.0149 0.63191,-0.0242 0.94786,-0.0288 0.31594,-0.009 0.63188,0 0.94785,0 0.31594,0.009 0.63188,0.0158 0.94783,0.0307 0.31594,0.0139 0.63187,0.0316 0.94784,0.0521 0.31594,0.0205 0.63188,0.0428 0.94783,0.0651 0.31594,0.0233 0.63188,0.0465 0.94785,0.0688 0.31591,0.0223 0.63188,0.0437 0.94783,0.0623 0.31594,0.0186 0.63188,0.0354 0.94784,0.0484 0.31594,0.013 0.63189,0.0223 0.94783,0.0279 0.31594,0.009 0.63188,0.009 0.94785,0.009 0.31592,0 0.63189,-0.009 0.94783,-0.0158 0.31594,-0.009 0.63188,-0.0195 0.94782,-0.0335 0.31595,-0.013 0.63191,-0.0288 0.94785,-0.0456 0.31594,-0.0158 0.63188,-0.0335 0.94782,-0.0503 0.31595,-0.0167 0.63192,-0.0326 0.94786,-0.0474 0.31594,-0.0149 0.63188,-0.0279 0.94782,-0.0391 0.31595,-0.0112 0.63191,-0.0195 0.94783,-0.026 0.31596,-0.009 0.6319,-0.009 0.94784,-0.0102 0.31597,0 0.63192,0 0.94786,0.009 0.31594,0.009 0.63188,0.0112 0.94782,0.0205 0.31596,0.009 0.63189,0.0195 0.94785,0.0307 0.31594,0.0112 0.63188,0.0233 0.94782,0.0363 0.31597,0.0121 0.63192,0.0242 0.94786,0.0363 0.31594,0.0112 0.63188,0.0223 0.94782,0.0316 0.31595,0.009 0.63189,0.0168 0.94785,0.0223 0.31594,0.009 0.63188,0.009 0.94783,0.0112 0.31597,0 0.63191,0 0.94785,0 0.31594,0 0.63188,-0.009 0.94783,-0.0121 0.31594,-0.009 0.63188,-0.013 0.94784,-0.0205 0.31594,-0.009 0.63188,-0.0167 0.94783,-0.0251 0.31597,-0.009 0.63188,-0.0177 0.94785,-0.027 0.31594,-0.009 0.63188,-0.0168 0.94783,-0.0242 0.31594,-0.009 0.63188,-0.013 0.94784,-0.0186 0.31594,0 0.63188,-0.009 0.94783,-0.0112 0.31594,0 0.63188,0 0.94785,0 0.31594,0 0.63188,0 0.94783,0.009 0.31594,0 0.6319,0.009 0.94784,0.013 0.31594,0.009 0.63189,0.0112 0.94785,0.0177 0.31592,0.009 0.63189,0.013 0.94783,0.0195 0.31594,0.009 0.63188,0.013 0.94783,0.0186 0.31594,0.009 0.6319,0.0112 0.94782,0.0149 0.31596,0 0.63191,0.009 0.94785,0.0102 0.31594,0 0.63191,0 0.94785,0 0.31594,1.9e-4 0.63189,0 0.94783,0 0.31594,0 0.6319,-0.009 0.94782,-0.009 0.31596,0 0.63191,-0.009 0.94785,-0.0121 0.31594,-0.009 0.63191,-0.009 0.94785,-0.0139 0.31594,0 0.63189,-0.009 0.94783,-0.014 0.31594,-0.009 0.63188,-0.009 0.94782,-0.0121 0.31596,0 0.63191,-0.009 0.94785,-0.009 0.31594,0 0.63191,0 0.94782,0"
       style="fill:none;fill-opacity:1;fill-rule:evenodd;stroke:#000000;stroke-width:0.499999;stroke-linecap:round;stroke-linejoin:round;stroke-miterlimit:4;stroke-dasharray:none;stroke-dashoffset:0;stroke-opacity:1;paint-order:normal"
       inkscape:connector-curvature="0"
       inkscape:export-filename="C:\Backup\Academic\Apuntes MMR\Editting\LaTex\Super Apunte F1\PNG\Osc5.png"
       inkscape:export-xdpi="300"
       inkscape:export-ydpi="300" />
    <path
       id="path53083"
       title="t 1.5*exp(-t)"
       d="m 13.886681,87.477331 c 0.315961,0.746211 0.631875,1.478372 0.947845,2.196949 0.315942,0.718642 0.631884,1.423635 0.947826,2.115601 0.31597,0.69206 0.631912,1.371 0.947854,2.037472 0.315942,0.66638 0.631884,1.320291 0.947844,1.962107 0.315942,0.641723 0.631884,1.27135 0.947826,1.88944 0.31597,0.617996 0.631884,1.224362 0.947854,1.819563 0.315942,0.595197 0.631884,1.179147 0.947826,1.752297 0.315942,0.57315 0.631884,1.1355 0.947845,1.68744 0.315923,0.55203 0.631884,1.09354 0.947826,1.6251 0.315942,0.53156 0.631884,1.05307 0.947854,1.565 0.315942,0.51183 0.631884,1.01408 0.947826,1.50703 0.315942,0.49303 0.631884,0.97668 0.947845,1.45129 0.315923,0.4748 0.631884,0.94058 0.947826,1.39771 0.315942,0.45721 0.631884,0.90568 0.947853,1.34597 0.315942,0.44028 0.631884,0.87219 0.947826,1.29619 0.315942,0.424 0.631884,0.83991 0.947826,1.24827 0.315942,0.40828 0.631903,0.80883 0.947845,1.20204 0.315942,0.3932 0.631884,0.77896 0.947854,1.15755 0.315914,0.37869 0.631884,0.75022 0.947826,1.11485 0.315942,0.36464 0.631884,0.7224 0.947826,1.07354 0.315942,0.35115 0.631903,0.69569 0.947845,1.03381 0.315942,0.33822 0.631911,0.67001 0.947853,0.99566 0.315942,0.32566 0.631884,0.64517 0.947826,0.95873 0.315943,0.31365 0.631885,0.62134 0.947827,0.92336 0.31596,0.30202 0.631902,0.59827 0.947844,0.88913 0.315942,0.29085 0.631912,0.57622 0.947826,0.85628 0.31597,0.28006 0.631912,0.55491 0.947854,0.82465 0.315942,0.26973 0.631884,0.53435 0.947826,0.79403 0.315961,0.25978 0.631903,0.51463 0.947845,0.76482 0.315942,0.2501 0.631884,0.49555 0.947826,0.73644 0.31597,0.24089 0.631912,0.47723 0.947854,0.70918 0.315942,0.23196 0.631884,0.45955 0.947826,0.68294 0.31596,0.2235 0.631884,0.44261 0.947844,0.65773 0.315942,0.21512 0.631884,0.42623 0.947826,0.63344 0.31597,0.20712 0.631912,0.41042 0.947854,0.61 0.315942,0.19948 0.631884,0.39515 0.947826,0.58738 0.315942,0.19214 0.631884,0.38065 0.947845,0.56562 0.315942,0.18506 0.631884,0.36659 0.947826,0.54477 0.315942,0.17818 0.631884,0.35301 0.947854,0.52458 0.315942,0.17166 0.631884,0.33998 0.947854,0.50523 0.315914,0.16524 0.631884,0.32742 0.947826,0.48652 0.315942,0.15911 0.631874,0.31523 0.947816,0.46848 0.315942,0.15333 0.631912,0.30369 0.947826,0.45126 0.31597,0.14757 0.631912,0.29234 0.947854,0.43451 0.315942,0.14208 0.631912,0.28155 0.947854,0.41842 0.315942,0.13687 0.631884,0.27113 0.947826,0.40297 0.315933,0.13175 0.631903,0.26108 0.947817,0.388 0.31597,0.127 0.631912,0.25149 0.947854,0.37375 0.315942,0.12217 0.631912,0.2421 0.947854,0.3598 0.315942,0.1178 0.631884,0.23326 0.947826,0.34659 0.315942,0.11342 0.631884,0.22461 0.947816,0.33375 0.31597,0.10923 0.631912,0.21623 0.947854,0.32147 0.315942,0.10504 0.631912,0.20823 0.947826,0.30946 0.31597,0.10123 0.631912,0.2006 0.947854,0.29811 0.315942,0.0974 0.631884,0.19316 0.947826,0.28695 0.315961,0.094 0.631903,0.18609 0.947845,0.27643 0.315942,0.0902 0.631912,0.1792 0.947826,0.26629 0.31597,0.0875 0.631912,0.17251 0.947854,0.25634 0.315942,0.0837 0.631884,0.16608 0.947844,0.24684 0.315942,0.081 0.631884,0.16004 0.947826,0.23773 0.31597,0.0782 0.631884,0.15408 0.947854,0.22898 0.315942,0.0744 0.631884,0.14831 0.947826,0.22051 0.315942,0.0717 0.631884,0.14283 0.947845,0.21224 0.315942,0.0698 0.631884,0.13761 0.947826,0.20451 0.31597,0.067 0.631884,0.13249 0.947854,0.19688 0.315942,0.0642 0.631884,0.12765 0.947826,0.18971 0.315942,0.0623 0.631884,0.12282 0.947844,0.18256 0.315924,0.0595 0.631884,0.11835 0.947826,0.17585 0.315942,0.0577 0.631884,0.11398 0.947854,0.16934 0.315942,0.0558 0.631884,0.10979 0.947826,0.1631 0.315942,0.053 0.631884,0.1057 0.947845,0.15706 0.315923,0.0512 0.631884,0.10179 0.947826,0.15129 0.315942,0.0493 0.631884,0.098 0.947854,0.14561 0.315942,0.0475 0.631884,0.0944 0.947826,0.14031 0.315942,0.0456 0.631884,0.0912 0.947826,0.1351 0.315942,0.0447 0.631902,0.0875 0.947844,0.13008 0.315942,0.0428 0.631912,0.0847 0.947854,0.12524 0.315942,0.0409 0.631884,0.0809 0.947826,0.12067 0.315942,0.0391 0.631884,0.0782 0.947826,0.11612 0.315961,0.0382 0.631903,0.0754 0.947845,0.11193 0.315942,0.0363 0.631912,0.0726 0.947826,0.10775 0.31597,0.0354 0.631912,0.0698 0.947854,0.10374 0.315942,0.0335 0.631884,0.067 0.947826,0.0999 0.31596,0.0326 0.631902,0.0651 0.947844,0.0962 0.315942,0.0316 0.631912,0.0623 0.947826,0.093 0.31597,0.0307 0.631912,0.0596 0.947854,0.0893 0.315942,0.0289 0.631884,0.0577 0.947826,0.0856 0.315961,0.0279 0.631884,0.0558 0.947845,0.0828 0.315942,0.027 0.631884,0.054 0.947826,0.08 0.31597,0.026 0.631912,0.0521 0.947854,0.0763 0.315942,0.0251 0.631884,0.0493 0.947827,0.0735 0.31597,0.0242 0.63188,0.0484 0.94784,0.0707 0.31595,0.0233 0.63189,0.0465 0.94783,0.0689 0.31597,0.0223 0.63191,0.0447 0.94785,0.0661 0.31595,0.0214 0.63189,0.0428 0.94786,0.0633 0.31591,0.0205 0.63188,0.0409 0.94782,0.0614 0.31595,0.0195 0.63188,0.04 0.94782,0.0586 0.31594,0.0195 0.63191,0.0381 0.94785,0.0568 0.31595,0.0186 0.63189,0.0363 0.94786,0.0549 0.31591,0.0177 0.63188,0.0353 0.94782,0.053 0.31595,0.0168 0.63189,0.0344 0.94783,0.0503 0.31593,0.0167 0.6319,0.0326 0.94784,0.0493 0.31595,0.0158 0.63189,0.0316 0.94783,0.0474 0.31594,0.0149 0.63191,0.0307 0.94785,0.0456 0.31595,0.0149 0.63189,0.0289 0.94783,0.0437 0.31594,0.014 0.6319,0.0279 0.94782,0.0419 0.31597,0.014 0.63191,0.027 0.94785,0.04 0.31594,0.013 0.63191,0.0261 0.94785,0.0391 0.31595,0.013 0.63189,0.0251 0.94783,0.0372 0.31594,0.0121 0.63188,0.0242 0.94783,0.0363 0.31596,0.0121 0.6319,0.0233 0.94784,0.0344 0.31594,0.0112 0.63191,0.0223 0.94783,0.0335 0.31597,0.0112 0.63191,0.0214 0.94785,0.0326 0.31596,0.0102 0.63189,0.0214 0.94785,0.0307 0.31594,0.0102 0.63188,0.0205 0.94782,0.0298 0.31597,0.0102 0.63191,0.0195 0.94786,0.0288 0.31594,0.009 0.63188,0.0186 0.94782,0.0279 0.31594,0.009 0.63189,0.0177 0.94785,0.027 0.31594,0.009 0.63188,0.0177 0.94782,0.026 0.31597,0.009 0.63189,0.0168 0.94786,0.0251 0.31594,0.009 0.63188,0.0158 0.94782,0.0242 0.31594,0.009 0.63189,0.0158 0.94785,0.0233 0.31594,0.009 0.63188,0.0149 0.94782,0.0223 0.31597,0.009 0.63189,0.014 0.94786,0.0214 0.31594,0.009 0.63188,0.014 0.94782,0.0205 0.31595,0.009 0.63189,0.013 0.94785,0.0195 0.31592,0.009 0.63188,0.013 0.94782,0.0195 0.31595,0.009 0.63189,0.0121 0.94786,0.0186 0.31594,0.009 0.63188,0.0121 0.94782,0.0177 0.31595,0.009 0.63189,0.0112 0.94783,0.0168 0.31596,0.009 0.6319,0.0112 0.94784,0.0168 0.31595,0.009 0.63192,0.0102 0.94786,0.0158 0.31594,0.009 0.63188,0.0102 0.94782,0.0149 0.31595,0 0.63191,0.0102 0.94783,0.0149 0.31596,0.009 0.6319,0.009 0.94784,0.014 0.31595,0 0.63192,0.009 0.94786,0.013 0.31594,0 0.63188,0.009 0.94782,0.013 0.31595,0.009 0.63189,0.009 0.94783,0.013 0.31596,0 0.6319,0.009 0.94785,0.0121 0.31594,0 0.63191,0.009 0.94782,0.0112 0.31597,0 0.63191,0.009 0.94786,0.0112 0.31594,0 0.63188,0.009 0.94782,0.0112 0.31596,0 0.6319,0.009 0.94785,0.0102 0.31594,0 0.63191,0.009 0.94782,0.0102 0.31597,0 0.63191,0.009 0.94786,0.009 0.31594,0 0.63188,0.009 0.94782,0.009 0.31597,0 0.63189,0.009 0.94785,0.009 0.31594,0 0.63188,0.009 0.94782,0.009 0.31597,0 0.63191,0.009 0.94786,0.009 0.31594,0 0.63188,0.009 0.94785,0.009 0.31594,0 0.63188,0.009 0.94783,0.009 0.31594,0 0.63187,0 0.94784,0.009 0.31594,0 0.63188,0 0.94783,0.009 0.31594,0 0.63188,0 0.94785,0.009 0.31591,0 0.63188,0.009 0.94783,0.009 0.31594,0 0.63188,0.009 0.94784,0.009 0.31594,0 0.63189,0 0.94783,0.009 0.31594,0 0.63188,0 0.94785,0.009 0.31592,0 0.63189,0 0.94783,0.009 0.31594,0 0.63188,0 0.94782,0.009 0.31595,0 0.63191,0 0.94785,0.009 0.31594,0 0.63188,0 0.94782,0.009 0.31595,0 0.63192,0 0.94786,0 0.31594,0 0.63188,0 0.94782,0.009 0.31595,0 0.63191,0 0.94783,0 0.31596,0 0.6319,0 0.94784,0.009 0.31597,0 0.63192,0 0.94786,0 0.31594,0 0.63188,0 0.94782,0 0.31596,0 0.63189,0 0.94785,0 0.31594,0 0.63188,0 0.94782,0 0.31597,0 0.63192,0 0.94786,0 0.31594,0 0.63188,0 0.94782,0 0.31595,0 0.63189,0 0.94785,0 0.31594,0 0.63188,0 0.94783,0 0.31597,0 0.63191,0 0.94785,0 0.31594,0 0.63188,0 0.94783,0 0.31594,0 0.63188,0 0.94784,0 0.31594,0 0.63188,0 0.94783,0 0.31597,0 0.63188,0 0.94785,0 0.31594,0 0.63188,0 0.94783,0 0.31594,0 0.63188,0 0.94784,0 0.31594,0 0.63188,0 0.94783,0 0.31594,0 0.63188,0 0.94785,0 0.31594,0 0.63188,0 0.94783,0 0.31594,0 0.6319,0 0.94784,0 0.31594,0 0.63189,0 0.94785,0 0.31592,0 0.63189,0 0.94783,0 0.31594,0 0.63188,0 0.94783,0 0.31594,0 0.6319,0 0.94782,0 0.31596,0 0.63191,0 0.94785,0 0.31594,0 0.63191,0 0.94785,0 0.31594,0 0.63189,0 0.94783,0 0.31594,0 0.6319,0 0.94782,0 0.31596,0 0.63191,0 0.94785,0 0.31594,0 0.63191,0 0.94785,0 0.31594,0 0.63189,0 0.94783,0 0.31594,0 0.63188,0 0.94782,0 0.31596,0 0.63191,0 0.94785,0 0.31594,0 0.63191,0 0.94782,0"
       style="fill:none;fill-opacity:1;fill-rule:evenodd;stroke:#000000;stroke-width:0.7;stroke-linecap:round;stroke-linejoin:round;stroke-miterlimit:4;stroke-dasharray:5.60001, 5.60001;stroke-dashoffset:0;stroke-opacity:1;paint-order:normal"
       inkscape:connector-curvature="0"
       inkscape:export-filename="C:\Backup\Academic\Apuntes MMR\Editting\LaTex\Super Apunte F1\PNG\Osc5.png"
       inkscape:export-xdpi="300"
       inkscape:export-ydpi="300" />
    <path
       style="fill:none;stroke:#000000;stroke-width:0.3;stroke-linecap:round;stroke-linejoin:round;stroke-miterlimit:4;stroke-dasharray:none;stroke-opacity:1"
       d="M 13.883062,148.50024 H 202.50634"
       id="path53094"
       inkscape:connector-curvature="0"
       inkscape:export-filename="C:\Backup\Academic\Apuntes MMR\Editting\LaTex\Super Apunte F1\PNG\Osc5.png"
       inkscape:export-xdpi="300"
       inkscape:export-ydpi="300" />
    <path
       inkscape:connector-curvature="0"
       id="path53096"
       d="M 13.886681,86.806857 V 210.19314"
       style="fill:none;stroke:#000000;stroke-width:0.3;stroke-linecap:round;stroke-linejoin:round;stroke-miterlimit:4;stroke-dasharray:none;stroke-opacity:1"
       inkscape:export-filename="C:\Backup\Academic\Apuntes MMR\Editting\LaTex\Super Apunte F1\PNG\Osc5.png"
       inkscape:export-xdpi="300"
       inkscape:export-ydpi="300" />
    <flowRoot
       inkscape:export-ydpi="300"
       inkscape:export-xdpi="300"
       xml:space="preserve"
       id="flowRoot7039-0-0-4"
       style="font-style:normal;font-variant:normal;font-weight:normal;font-stretch:normal;font-size:26.6667px;line-height:1.25;font-family:'Math Symbols';-inkscape-font-specification:'Math Symbols';letter-spacing:0px;word-spacing:0px;fill:#000000;fill-opacity:1;stroke:none;stroke-width:1.07473"
       transform="matrix(0.24619481,0,0,0.24617827,-112.32864,-23.477099)"
       inkscape:export-filename="C:\Backup\Academic\Apuntes MMR\Editting\LaTex\Super Apunte F1\PNG\Osc5.png"><flowRegion
         id="flowRegion7035-2-2-4"
         style="stroke-width:1.07473"><rect
           id="rect7033-12-7-3"
           width="226.42856"
           height="102.14283"
           x="483.57144"
           y="450.37683"
           style="stroke-width:1.07473" /></flowRegion><flowPara
         id="flowPara7037-2-6-3"
         style="font-style:normal;font-variant:normal;font-weight:normal;font-stretch:normal;font-size:32px;font-family:'CMU Classical Serif';-inkscape-font-specification:'CMU Classical Serif';stroke-width:1.07473">x</flowPara></flowRoot>
    <flowRoot
       inkscape:export-ydpi="300"
       inkscape:export-xdpi="300"
       xml:space="preserve"
       id="flowRoot7039-0-0-4-0"
       style="font-style:normal;font-variant:normal;font-weight:normal;font-stretch:normal;font-size:26.6667px;line-height:1.25;font-family:'Math Symbols';-inkscape-font-specification:'Math Symbols';letter-spacing:0px;word-spacing:0px;fill:#000000;fill-opacity:1;stroke:none;stroke-width:1.07473"
       transform="matrix(0.24619481,0,0,0.24617827,78.412936,26.538377)"
       inkscape:export-filename="C:\Backup\Academic\Apuntes MMR\Editting\LaTex\Super Apunte F1\PNG\Osc5.png"><flowRegion
         id="flowRegion7035-2-2-4-7"
         style="stroke-width:1.07473"><rect
           id="rect7033-12-7-3-1"
           width="226.42856"
           height="102.14283"
           x="483.57144"
           y="450.37683"
           style="stroke-width:1.07473" /></flowRegion><flowPara
         id="flowPara7037-2-6-3-1"
         style="font-style:normal;font-variant:normal;font-weight:normal;font-stretch:normal;font-size:32px;font-family:'CMU Classical Serif';-inkscape-font-specification:'CMU Classical Serif';stroke-width:1.07473">t</flowPara></flowRoot>
  </g>
</svg>
